Hubballi-Regular-wire-20-LatinOnly.ufo
<glyph name="exclam" format="1">
  <advance width="327"/>
  <unicode hex="0021"/>
  <outline>
    <contour>
      <point x="137" y="266" type="curve" smooth="yes"/>
      <point x="144" y="544" type="line" smooth="yes"/>
      <point x="144" y="554"/>
      <point x="159" y="563"/>
      <point x="170" y="563" type="curve" smooth="yes"/>
      <point x="180" y="563"/>
      <point x="194" y="553"/>
      <point x="194" y="542" type="curve" smooth="yes"/>
      <point x="187" y="264" type="line" smooth="yes"/>
      <point x="187" y="254"/>
      <point x="172" y="245"/>
      <point x="161" y="245" type="curve" smooth="yes"/>
      <point x="151" y="245"/>
      <point x="137" y="255"/>
    </contour>
    <component base="period" xOffset="49"/>
    <component base="period" xOffset="49"/>
  </outline>
</glyph>
<glyph name="percent" format="1">
  <advance width="814"/>
  <unicode hex="0025"/>
  <outline>
    <contour>
      <point x="203" y="535" type="curve" smooth="yes"/>
      <point x="272" y="535"/>
      <point x="336" y="476"/>
      <point x="336" y="379" type="curve" smooth="yes"/>
      <point x="336" y="288"/>
      <point x="282" y="223"/>
      <point x="203" y="223" type="curve" smooth="yes"/>
      <point x="131" y="223"/>
      <point x="69" y="288"/>
      <point x="69" y="378" type="curve" smooth="yes"/>
      <point x="69" y="476"/>
      <point x="130" y="535"/>
    </contour>
    <contour>
      <point x="612" y="305" type="curve" smooth="yes"/>
      <point x="681" y="305"/>
      <point x="745" y="246"/>
      <point x="745" y="149" type="curve" smooth="yes"/>
      <point x="745" y="58"/>
      <point x="691" y="-7"/>
      <point x="612" y="-7" type="curve" smooth="yes"/>
      <point x="540" y="-7"/>
      <point x="478" y="58"/>
      <point x="478" y="148" type="curve" smooth="yes"/>
      <point x="478" y="246"/>
      <point x="539" y="305"/>
    </contour>
    <contour>
      <point x="569" y="497" type="curve" smooth="yes"/>
      <point x="286" y="12" type="line" smooth="yes"/>
      <point x="281" y="2"/>
      <point x="266" y="0"/>
      <point x="257" y="6" type="curve" smooth="yes"/>
      <point x="248" y="11"/>
      <point x="242" y="25"/>
      <point x="248" y="34" type="curve" smooth="yes"/>
      <point x="531" y="519" type="line" smooth="yes"/>
      <point x="536" y="529"/>
      <point x="551" y="531"/>
      <point x="560" y="525" type="curve" smooth="yes"/>
      <point x="569" y="520"/>
      <point x="575" y="506"/>
    </contour>
    <contour>
      <point x="203" y="495" type="curve" smooth="yes"/>
      <point x="148" y="495"/>
      <point x="119" y="440"/>
      <point x="119" y="378" type="curve" smooth="yes"/>
      <point x="119" y="322"/>
      <point x="149" y="263"/>
      <point x="203" y="263" type="curve" smooth="yes"/>
      <point x="262" y="263"/>
      <point x="286" y="322"/>
      <point x="286" y="379" type="curve" smooth="yes"/>
      <point x="286" y="440"/>
      <point x="254" y="495"/>
    </contour>
    <contour>
      <point x="612" y="265" type="curve" smooth="yes"/>
      <point x="557" y="265"/>
      <point x="528" y="210"/>
      <point x="528" y="148" type="curve" smooth="yes"/>
      <point x="528" y="92"/>
      <point x="558" y="33"/>
      <point x="612" y="33" type="curve" smooth="yes"/>
      <point x="671" y="33"/>
      <point x="695" y="92"/>
      <point x="695" y="149" type="curve" smooth="yes"/>
      <point x="695" y="210"/>
      <point x="663" y="265"/>
    </contour>
  </outline>
</glyph>
<glyph name="ampersand" format="1">
  <advance width="634"/>
  <unicode hex="0026"/>
  <outline>
    <contour>
      <point x="538" y="264" type="curve" smooth="yes"/>
      <point x="452" y="142" type="line" smooth="yes"/>
      <point x="371" y="28"/>
      <point x="311" y="-5"/>
      <point x="233" y="-5" type="curve" smooth="yes"/>
      <point x="136" y="-5"/>
      <point x="67" y="54"/>
      <point x="67" y="133" type="curve" smooth="yes"/>
      <point x="67" y="204"/>
      <point x="103" y="261"/>
      <point x="264" y="328" type="curve" smooth="yes"/>
      <point x="317" y="349"/>
      <point x="339" y="381"/>
      <point x="339" y="419" type="curve" smooth="yes"/>
      <point x="339" y="460"/>
      <point x="306" y="495"/>
      <point x="258" y="495" type="curve" smooth="yes"/>
      <point x="211" y="495"/>
      <point x="180" y="460"/>
      <point x="180" y="415" type="curve" smooth="yes"/>
      <point x="180" y="367"/>
      <point x="215" y="330"/>
      <point x="268" y="283" type="curve" smooth="yes"/>
      <point x="549" y="39" type="line" smooth="yes"/>
      <point x="557" y="31"/>
      <point x="557" y="18"/>
      <point x="550" y="10" type="curve" smooth="yes"/>
      <point x="543" y="2"/>
      <point x="530" y="0"/>
      <point x="521" y="7" type="curve" smooth="yes"/>
      <point x="240" y="253" type="line" smooth="yes"/>
      <point x="175" y="310"/>
      <point x="130" y="355"/>
      <point x="130" y="415" type="curve" smooth="yes"/>
      <point x="130" y="490"/>
      <point x="187" y="535"/>
      <point x="258" y="535" type="curve" smooth="yes"/>
      <point x="331" y="535"/>
      <point x="389" y="486"/>
      <point x="389" y="419" type="curve" smooth="yes"/>
      <point x="389" y="363"/>
      <point x="353" y="321"/>
      <point x="280" y="290" type="curve" smooth="yes"/>
      <point x="149" y="237"/>
      <point x="117" y="192"/>
      <point x="117" y="133" type="curve" smooth="yes"/>
      <point x="117" y="78"/>
      <point x="164" y="35"/>
      <point x="233" y="35" type="curve" smooth="yes"/>
      <point x="301" y="35"/>
      <point x="349" y="72"/>
      <point x="416" y="168" type="curve" smooth="yes"/>
      <point x="502" y="290" type="line" smooth="yes"/>
      <point x="508" y="298"/>
      <point x="523" y="300"/>
      <point x="532" y="293" type="curve" smooth="yes"/>
      <point x="540" y="287"/>
      <point x="544" y="273"/>
    </contour>
  </outline>
</glyph>
<glyph name="plus" format="1">
  <advance width="530"/>
  <unicode hex="002B"/>
  <outline>
    <contour>
      <point x="96" y="284" type="curve" smooth="yes"/>
      <point x="433" y="284" type="line" smooth="yes"/>
      <point x="444" y="284"/>
      <point x="453" y="275"/>
      <point x="453" y="264" type="curve" smooth="yes"/>
      <point x="453" y="253"/>
      <point x="444" y="244"/>
      <point x="433" y="244" type="curve" smooth="yes"/>
      <point x="96" y="244" type="line" smooth="yes"/>
      <point x="85" y="244"/>
      <point x="76" y="253"/>
      <point x="76" y="264" type="curve" smooth="yes"/>
      <point x="76" y="275"/>
      <point x="85" y="284"/>
    </contour>
    <contour>
      <point x="240" y="100" type="curve" smooth="yes"/>
      <point x="240" y="427" type="line" smooth="yes"/>
      <point x="240" y="438"/>
      <point x="254" y="447"/>
      <point x="265" y="447" type="curve" smooth="yes"/>
      <point x="276" y="447"/>
      <point x="290" y="438"/>
      <point x="290" y="427" type="curve" smooth="yes"/>
      <point x="290" y="100" type="line" smooth="yes"/>
      <point x="290" y="89"/>
      <point x="276" y="80"/>
      <point x="265" y="80" type="curve" smooth="yes"/>
      <point x="254" y="80"/>
      <point x="240" y="89"/>
    </contour>
  </outline>
</glyph>
<glyph name="four" format="1">
  <advance width="531"/>
  <unicode hex="0034"/>
  <outline>
    <contour>
      <point x="392" y="518" type="curve" smooth="yes"/>
      <point x="392" y="23" type="line" smooth="yes"/>
      <point x="392" y="12"/>
      <point x="378" y="3"/>
      <point x="367" y="3" type="curve" smooth="yes"/>
      <point x="356" y="3"/>
      <point x="342" y="12"/>
      <point x="342" y="23" type="curve" smooth="yes"/>
      <point x="342" y="518" type="line" smooth="yes"/>
      <point x="342" y="529"/>
      <point x="356" y="538"/>
      <point x="367" y="538" type="curve" smooth="yes"/>
      <point x="378" y="538"/>
      <point x="392" y="529"/>
    </contour>
    <contour>
      <point x="376" y="495" type="curve" smooth="yes"/>
      <point x="77" y="133" type="line" smooth="yes"/>
      <point x="71" y="125"/>
      <point x="57" y="125"/>
      <point x="48" y="132" type="curve" smooth="yes"/>
      <point x="40" y="138"/>
      <point x="38" y="152"/>
      <point x="45" y="161" type="curve" smooth="yes"/>
      <point x="344" y="523" type="line" smooth="yes"/>
      <point x="350" y="531"/>
      <point x="364" y="531"/>
      <point x="373" y="524" type="curve" smooth="yes"/>
      <point x="381" y="518"/>
      <point x="383" y="504"/>
    </contour>
    <contour>
      <point x="71" y="167" type="curve" smooth="yes"/>
      <point x="475" y="167" type="line" smooth="yes"/>
      <point x="486" y="167"/>
      <point x="495" y="158"/>
      <point x="495" y="147" type="curve" smooth="yes"/>
      <point x="495" y="136"/>
      <point x="486" y="127"/>
      <point x="475" y="127" type="curve" smooth="yes"/>
      <point x="71" y="127" type="line" smooth="yes"/>
      <point x="60" y="127"/>
      <point x="51" y="136"/>
      <point x="51" y="147" type="curve" smooth="yes"/>
      <point x="51" y="158"/>
      <point x="60" y="167"/>
    </contour>
  </outline>
</glyph>
<glyph name="five" format="1">
  <advance width="521"/>
  <unicode hex="0035"/>
  <outline>
    <contour>
      <point x="144" y="528" type="curve" smooth="yes"/>
      <point x="401" y="528" type="line" smooth="yes"/>
      <point x="412" y="528"/>
      <point x="421" y="519"/>
      <point x="421" y="508" type="curve" smooth="yes"/>
      <point x="421" y="497"/>
      <point x="412" y="488"/>
      <point x="401" y="488" type="curve" smooth="yes"/>
      <point x="144" y="488" type="line" smooth="yes"/>
      <point x="133" y="488"/>
      <point x="124" y="497"/>
      <point x="124" y="508" type="curve" smooth="yes"/>
      <point x="124" y="519"/>
      <point x="133" y="528"/>
    </contour>
    <contour>
      <point x="104" y="72" type="curve" smooth="yes"/>
      <point x="145" y="53"/>
      <point x="203" y="39"/>
      <point x="266" y="39" type="curve" smooth="yes"/>
      <point x="365" y="39"/>
      <point x="407" y="97"/>
      <point x="407" y="167" type="curve" smooth="yes"/>
      <point x="407" y="233"/>
      <point x="356" y="283"/>
      <point x="270" y="283" type="curve" smooth="yes"/>
      <point x="208" y="283"/>
      <point x="163" y="267"/>
      <point x="133" y="253" type="curve" smooth="yes"/>
      <point x="123" y="248"/>
      <point x="110" y="253"/>
      <point x="106" y="263" type="curve" smooth="yes"/>
      <point x="101" y="272"/>
      <point x="106" y="285"/>
      <point x="115" y="289" type="curve" smooth="yes"/>
      <point x="149" y="305"/>
      <point x="200" y="323"/>
      <point x="270" y="323" type="curve" smooth="yes"/>
      <point x="386" y="323"/>
      <point x="457" y="257"/>
      <point x="457" y="167" type="curve" smooth="yes"/>
      <point x="457" y="72"/>
      <point x="395" y="-1"/>
      <point x="266" y="-1" type="curve" smooth="yes"/>
      <point x="197" y="-1"/>
      <point x="133" y="15"/>
      <point x="88" y="36" type="curve" smooth="yes"/>
      <point x="78" y="40"/>
      <point x="73" y="53"/>
      <point x="78" y="62" type="curve" smooth="yes"/>
      <point x="82" y="72"/>
      <point x="95" y="77"/>
    </contour>
    <contour>
      <point x="168" y="499" type="curve" smooth="yes"/>
      <point x="149" y="274" type="line" smooth="yes"/>
      <point x="148" y="263"/>
      <point x="133" y="255"/>
      <point x="122" y="256" type="curve" smooth="yes"/>
      <point x="112" y="257"/>
      <point x="98" y="267"/>
      <point x="99" y="278" type="curve" smooth="yes"/>
      <point x="118" y="503" type="line" smooth="yes"/>
      <point x="119" y="514"/>
      <point x="134" y="522"/>
      <point x="145" y="521" type="curve" smooth="yes"/>
      <point x="155" y="520"/>
      <point x="169" y="510"/>
    </contour>
  </outline>
</glyph>
<glyph name="seven" format="1">
  <advance width="466"/>
  <unicode hex="0037"/>
  <outline>
    <contour>
      <point x="431" y="496" type="curve" smooth="yes"/>
      <point x="393" y="425"/>
      <point x="290" y="286"/>
      <point x="261" y="235" type="curve" smooth="yes"/>
      <point x="236" y="189"/>
      <point x="217" y="133"/>
      <point x="217" y="78" type="curve" smooth="yes"/>
      <point x="217" y="23" type="line" smooth="yes"/>
      <point x="217" y="12"/>
      <point x="203" y="3"/>
      <point x="192" y="3" type="curve" smooth="yes"/>
      <point x="181" y="3"/>
      <point x="167" y="12"/>
      <point x="167" y="23" type="curve" smooth="yes"/>
      <point x="167" y="78" type="line" smooth="yes"/>
      <point x="167" y="141"/>
      <point x="192" y="205"/>
      <point x="221" y="257" type="curve" smooth="yes"/>
      <point x="250" y="308"/>
      <point x="353" y="447"/>
      <point x="391" y="518" type="curve" smooth="yes"/>
      <point x="396" y="527"/>
      <point x="411" y="530"/>
      <point x="420" y="525" type="curve" smooth="yes"/>
      <point x="430" y="520"/>
      <point x="436" y="506"/>
    </contour>
    <contour>
      <point x="404" y="488" type="curve" smooth="yes"/>
      <point x="61" y="488" type="line" smooth="yes"/>
      <point x="50" y="488"/>
      <point x="41" y="497"/>
      <point x="41" y="508" type="curve" smooth="yes"/>
      <point x="41" y="519"/>
      <point x="50" y="528"/>
      <point x="61" y="528" type="curve" smooth="yes"/>
      <point x="404" y="528" type="line" smooth="yes"/>
      <point x="415" y="528"/>
      <point x="424" y="519"/>
      <point x="424" y="508" type="curve" smooth="yes"/>
      <point x="424" y="497"/>
      <point x="415" y="488"/>
    </contour>
  </outline>
</glyph>
<glyph name="eight" format="1">
  <advance width="558"/>
  <unicode hex="0038"/>
  <outline>
    <contour>
      <point x="280" y="305" type="curve" smooth="yes"/>
      <point x="407" y="305"/>
      <point x="488" y="242"/>
      <point x="488" y="150" type="curve" smooth="yes"/>
      <point x="488" y="66"/>
      <point x="432" y="-5"/>
      <point x="280" y="-5" type="curve" smooth="yes"/>
      <point x="137" y="-5"/>
      <point x="70" y="66"/>
      <point x="70" y="149" type="curve" smooth="yes"/>
      <point x="70" y="242"/>
      <point x="145" y="305"/>
    </contour>
    <contour>
      <point x="280" y="535" type="curve" smooth="yes"/>
      <point x="393" y="535"/>
      <point x="462" y="482"/>
      <point x="462" y="402" type="curve" smooth="yes"/>
      <point x="462" y="327"/>
      <point x="403" y="265"/>
      <point x="280" y="265" type="curve" smooth="yes"/>
      <point x="151" y="265"/>
      <point x="96" y="327"/>
      <point x="96" y="402" type="curve" smooth="yes"/>
      <point x="96" y="482"/>
      <point x="161" y="535"/>
    </contour>
    <contour>
      <point x="280" y="265" type="curve" smooth="yes"/>
      <point x="179" y="265"/>
      <point x="120" y="220"/>
      <point x="120" y="149" type="curve" smooth="yes"/>
      <point x="120" y="86"/>
      <point x="175" y="35"/>
      <point x="280" y="35" type="curve" smooth="yes"/>
      <point x="392" y="35"/>
      <point x="438" y="86"/>
      <point x="438" y="150" type="curve" smooth="yes"/>
      <point x="438" y="220"/>
      <point x="375" y="265"/>
    </contour>
    <contour>
      <point x="280" y="495" type="curve" smooth="yes"/>
      <point x="197" y="495"/>
      <point x="146" y="460"/>
      <point x="146" y="402" type="curve" smooth="yes"/>
      <point x="146" y="347"/>
      <point x="189" y="305"/>
      <point x="280" y="305" type="curve" smooth="yes"/>
      <point x="367" y="305"/>
      <point x="412" y="347"/>
      <point x="412" y="402" type="curve" smooth="yes"/>
      <point x="412" y="460"/>
      <point x="359" y="495"/>
    </contour>
  </outline>
</glyph>
<glyph name="nine" format="1">
  <advance width="536"/>
  <unicode hex="0039"/>
  <outline>
    <contour>
      <point x="156" y="52" type="curve" smooth="yes"/>
      <point x="181" y="46"/>
      <point x="202" y="40"/>
      <point x="233" y="40" type="curve" smooth="yes"/>
      <point x="361" y="40"/>
      <point x="416" y="129"/>
      <point x="416" y="268" type="curve" smooth="yes"/>
      <point x="416" y="405"/>
      <point x="356" y="497"/>
      <point x="251" y="497" type="curve" smooth="yes"/>
      <point x="155" y="497"/>
      <point x="112" y="430"/>
      <point x="112" y="367" type="curve" smooth="yes"/>
      <point x="112" y="289"/>
      <point x="157" y="241"/>
      <point x="242" y="241" type="curve" smooth="yes"/>
      <point x="326" y="241"/>
      <point x="375" y="289"/>
      <point x="415" y="354" type="curve" smooth="yes"/>
      <point x="421" y="363"/>
      <point x="435" y="365"/>
      <point x="444" y="359" type="curve" smooth="yes"/>
      <point x="454" y="353"/>
      <point x="459" y="340"/>
      <point x="453" y="330" type="curve" smooth="yes"/>
      <point x="405" y="251"/>
      <point x="342" y="201"/>
      <point x="242" y="201" type="curve" smooth="yes"/>
      <point x="129" y="201"/>
      <point x="62" y="259"/>
      <point x="62" y="367" type="curve"/>
      <point x="62" y="452"/>
      <point x="125" y="537"/>
      <point x="251" y="537" type="curve" smooth="yes"/>
      <point x="374" y="537"/>
      <point x="466" y="447"/>
      <point x="466" y="268" type="curve" smooth="yes"/>
      <point x="466" y="91"/>
      <point x="383" y="0"/>
      <point x="233" y="0" type="curve" smooth="yes"/>
      <point x="198" y="0"/>
      <point x="173" y="6"/>
      <point x="146" y="14" type="curve" smooth="yes"/>
      <point x="135" y="16"/>
      <point x="129" y="28"/>
      <point x="132" y="38" type="curve" smooth="yes"/>
      <point x="134" y="49"/>
      <point x="146" y="55"/>
    </contour>
  </outline>
</glyph>
<glyph name="A" format="1">
  <advance width="580"/>
  <unicode hex="0041"/>
  <outline>
    <contour>
      <point x="302" y="508" type="curve" smooth="yes"/>
      <point x="234" y="355"/>
      <point x="140" y="141"/>
      <point x="95" y="15" type="curve" smooth="yes"/>
      <point x="92" y="5"/>
      <point x="76" y="1"/>
      <point x="66" y="4" type="curve" smooth="yes"/>
      <point x="56" y="8"/>
      <point x="47" y="21"/>
      <point x="51" y="31" type="curve" smooth="yes"/>
      <point x="96" y="157"/>
      <point x="192" y="373"/>
      <point x="260" y="526" type="curve" smooth="yes"/>
      <point x="264" y="536"/>
      <point x="279" y="540"/>
      <point x="289" y="535" type="curve" smooth="yes"/>
      <point x="299" y="531"/>
      <point x="307" y="517"/>
    </contour>
    <contour>
      <point x="308" y="527" type="curve" smooth="yes"/>
      <point x="380" y="372"/>
      <point x="479" y="155"/>
      <point x="527" y="32" type="curve" smooth="yes"/>
      <point x="531" y="21"/>
      <point x="522" y="8"/>
      <point x="512" y="4" type="curve" smooth="yes"/>
      <point x="502" y="0"/>
      <point x="487" y="4"/>
      <point x="483" y="14" type="curve" smooth="yes"/>
      <point x="435" y="137"/>
      <point x="338" y="354"/>
      <point x="266" y="507" type="curve" smooth="yes"/>
      <point x="262" y="517"/>
      <point x="269" y="531"/>
      <point x="279" y="535" type="curve" smooth="yes"/>
      <point x="288" y="540"/>
      <point x="303" y="537"/>
    </contour>
    <contour>
      <point x="142" y="188" type="curve" smooth="yes"/>
      <point x="433" y="188" type="line" smooth="yes"/>
      <point x="444" y="188"/>
      <point x="453" y="179"/>
      <point x="453" y="168" type="curve" smooth="yes"/>
      <point x="453" y="157"/>
      <point x="444" y="148"/>
      <point x="433" y="148" type="curve" smooth="yes"/>
      <point x="142" y="148" type="line" smooth="yes"/>
      <point x="131" y="148"/>
      <point x="122" y="157"/>
      <point x="122" y="168" type="curve" smooth="yes"/>
      <point x="122" y="179"/>
      <point x="131" y="188"/>
    </contour>
    <contour>
      <point x="284" y="534" type="move" name="top"/>
    </contour>
  </outline>
</glyph>
<glyph name="B" format="1">
  <advance width="528"/>
  <unicode hex="0042"/>
  <outline>
    <contour>
      <point x="132" y="303" type="curve" smooth="yes"/>
      <point x="281" y="303" type="line" smooth="yes"/>
      <point x="339" y="303"/>
      <point x="392" y="283"/>
      <point x="423" y="252" type="curve" smooth="yes"/>
      <point x="452" y="223"/>
      <point x="470" y="190"/>
      <point x="470" y="150" type="curve" smooth="yes"/>
      <point x="470" y="114"/>
      <point x="453" y="79"/>
      <point x="426" y="52" type="curve" smooth="yes"/>
      <point x="397" y="23"/>
      <point x="353" y="3"/>
      <point x="278" y="3" type="curve" smooth="yes"/>
      <point x="123" y="3" type="line" smooth="yes"/>
      <point x="109" y="3"/>
      <point x="98" y="12"/>
      <point x="98" y="23" type="curve" smooth="yes"/>
      <point x="98" y="508" type="line" smooth="yes"/>
      <point x="98" y="519"/>
      <point x="109" y="528"/>
      <point x="123" y="528" type="curve" smooth="yes"/>
      <point x="262" y="528" type="line" smooth="yes"/>
      <point x="319" y="528"/>
      <point x="358" y="510"/>
      <point x="382" y="486" type="curve" smooth="yes"/>
      <point x="403" y="464"/>
      <point x="422" y="429"/>
      <point x="422" y="397" type="curve" smooth="yes"/>
      <point x="422" y="361"/>
      <point x="403" y="329"/>
      <point x="382" y="307" type="curve" smooth="yes"/>
      <point x="361" y="287"/>
      <point x="321" y="266"/>
      <point x="274" y="263" type="curve" smooth="yes"/>
      <point x="264" y="262"/>
      <point x="254" y="271"/>
      <point x="253" y="282" type="curve" smooth="yes"/>
      <point x="252" y="292"/>
      <point x="261" y="302"/>
      <point x="272" y="303" type="curve" smooth="yes"/>
      <point x="307" y="306"/>
      <point x="337" y="321"/>
      <point x="352" y="337" type="curve" smooth="yes"/>
      <point x="367" y="351"/>
      <point x="372" y="375"/>
      <point x="372" y="397" type="curve" smooth="yes"/>
      <point x="372" y="417"/>
      <point x="367" y="442"/>
      <point x="352" y="456" type="curve" smooth="yes"/>
      <point x="334" y="474"/>
      <point x="305" y="488"/>
      <point x="262" y="488" type="curve" smooth="yes"/>
      <point x="123" y="488" type="line"/>
      <point x="148" y="508" type="line"/>
      <point x="148" y="23" type="line"/>
      <point x="123" y="43" type="line"/>
      <point x="278" y="43" type="line" smooth="yes"/>
      <point x="337" y="43"/>
      <point x="373" y="59"/>
      <point x="396" y="82" type="curve" smooth="yes"/>
      <point x="415" y="101"/>
      <point x="420" y="126"/>
      <point x="420" y="150" type="curve" smooth="yes"/>
      <point x="420" y="176"/>
      <point x="414" y="201"/>
      <point x="393" y="222" type="curve" smooth="yes"/>
      <point x="368" y="247"/>
      <point x="327" y="263"/>
      <point x="281" y="263" type="curve" smooth="yes"/>
      <point x="132" y="263" type="line" smooth="yes"/>
      <point x="121" y="263"/>
      <point x="112" y="272"/>
      <point x="112" y="283" type="curve" smooth="yes"/>
      <point x="112" y="294"/>
      <point x="121" y="303"/>
    </contour>
  </outline>
</glyph>
<glyph name="E" format="1">
  <advance width="487"/>
  <unicode hex="0045"/>
  <outline>
    <contour>
      <point x="148" y="508" type="curve" smooth="yes"/>
      <point x="148" y="23" type="line" smooth="yes"/>
      <point x="148" y="12"/>
      <point x="134" y="3"/>
      <point x="123" y="3" type="curve" smooth="yes"/>
      <point x="112" y="3"/>
      <point x="98" y="12"/>
      <point x="98" y="23" type="curve" smooth="yes"/>
      <point x="98" y="508" type="line" smooth="yes"/>
      <point x="98" y="519"/>
      <point x="112" y="528"/>
      <point x="123" y="528" type="curve" smooth="yes"/>
      <point x="134" y="528"/>
      <point x="148" y="519"/>
    </contour>
    <contour>
      <point x="131" y="43" type="curve" smooth="yes"/>
      <point x="402" y="43" type="line" smooth="yes"/>
      <point x="413" y="43"/>
      <point x="422" y="34"/>
      <point x="422" y="23" type="curve" smooth="yes"/>
      <point x="422" y="12"/>
      <point x="413" y="3"/>
      <point x="402" y="3" type="curve" smooth="yes"/>
      <point x="131" y="3" type="line" smooth="yes"/>
      <point x="120" y="3"/>
      <point x="111" y="12"/>
      <point x="111" y="23" type="curve" smooth="yes"/>
      <point x="111" y="34"/>
      <point x="120" y="43"/>
    </contour>
    <contour>
      <point x="131" y="528" type="curve" smooth="yes"/>
      <point x="400" y="528" type="line" smooth="yes"/>
      <point x="411" y="528"/>
      <point x="420" y="519"/>
      <point x="420" y="508" type="curve" smooth="yes"/>
      <point x="420" y="497"/>
      <point x="411" y="488"/>
      <point x="400" y="488" type="curve" smooth="yes"/>
      <point x="131" y="488" type="line" smooth="yes"/>
      <point x="120" y="488"/>
      <point x="111" y="497"/>
      <point x="111" y="508" type="curve" smooth="yes"/>
      <point x="111" y="519"/>
      <point x="120" y="528"/>
    </contour>
    <contour>
      <point x="131" y="304" type="curve" smooth="yes"/>
      <point x="357" y="304" type="line" smooth="yes"/>
      <point x="368" y="304"/>
      <point x="377" y="295"/>
      <point x="377" y="284" type="curve" smooth="yes"/>
      <point x="377" y="273"/>
      <point x="368" y="264"/>
      <point x="357" y="264" type="curve" smooth="yes"/>
      <point x="131" y="264" type="line" smooth="yes"/>
      <point x="120" y="264"/>
      <point x="111" y="273"/>
      <point x="111" y="284" type="curve" smooth="yes"/>
      <point x="111" y="295"/>
      <point x="120" y="304"/>
    </contour>
    <contour>
      <point x="265" y="528" type="move" name="top"/>
    </contour>
  </outline>
</glyph>
<glyph name="F" format="1">
  <advance width="475"/>
  <unicode hex="0046"/>
  <outline>
    <contour>
      <point x="148" y="508" type="curve" smooth="yes"/>
      <point x="148" y="23" type="line" smooth="yes"/>
      <point x="148" y="12"/>
      <point x="134" y="3"/>
      <point x="123" y="3" type="curve" smooth="yes"/>
      <point x="112" y="3"/>
      <point x="98" y="12"/>
      <point x="98" y="23" type="curve" smooth="yes"/>
      <point x="98" y="508" type="line" smooth="yes"/>
      <point x="98" y="519"/>
      <point x="112" y="528"/>
      <point x="123" y="528" type="curve" smooth="yes"/>
      <point x="134" y="528"/>
      <point x="148" y="519"/>
    </contour>
    <contour>
      <point x="131" y="528" type="curve" smooth="yes"/>
      <point x="408" y="528" type="line" smooth="yes"/>
      <point x="419" y="528"/>
      <point x="428" y="519"/>
      <point x="428" y="508" type="curve" smooth="yes"/>
      <point x="428" y="497"/>
      <point x="419" y="488"/>
      <point x="408" y="488" type="curve" smooth="yes"/>
      <point x="131" y="488" type="line" smooth="yes"/>
      <point x="120" y="488"/>
      <point x="111" y="497"/>
      <point x="111" y="508" type="curve" smooth="yes"/>
      <point x="111" y="519"/>
      <point x="120" y="528"/>
    </contour>
    <contour>
      <point x="131" y="285" type="curve" smooth="yes"/>
      <point x="357" y="285" type="line" smooth="yes"/>
      <point x="368" y="285"/>
      <point x="377" y="276"/>
      <point x="377" y="265" type="curve" smooth="yes"/>
      <point x="377" y="254"/>
      <point x="368" y="245"/>
      <point x="357" y="245" type="curve" smooth="yes"/>
      <point x="131" y="245" type="line" smooth="yes"/>
      <point x="120" y="245"/>
      <point x="111" y="254"/>
      <point x="111" y="265" type="curve" smooth="yes"/>
      <point x="111" y="276"/>
      <point x="120" y="285"/>
    </contour>
  </outline>
</glyph>
<glyph name="G" format="1">
  <advance width="618"/>
  <unicode hex="0047"/>
  <outline>
    <contour>
      <point x="496" y="473"/>
      <point x="484" y="467"/>
      <point x="474" y="471" type="curve" smooth="yes"/>
      <point x="434" y="487"/>
      <point x="388" y="497"/>
      <point x="335" y="497" type="curve" smooth="yes"/>
      <point x="202" y="497"/>
      <point x="111" y="400"/>
      <point x="111" y="262" type="curve" smooth="yes"/>
      <point x="111" y="138"/>
      <point x="189" y="34"/>
      <point x="332" y="34" type="curve" smooth="yes"/>
      <point x="404" y="34"/>
      <point x="457" y="53"/>
      <point x="500" y="80" type="curve" smooth="yes"/>
      <point x="509" y="86"/>
      <point x="522" y="83"/>
      <point x="528" y="74" type="curve" smooth="yes"/>
      <point x="534" y="65"/>
      <point x="531" y="52"/>
      <point x="522" y="46" type="curve" smooth="yes"/>
      <point x="473" y="15"/>
      <point x="414" y="-6"/>
      <point x="332" y="-6" type="curve" smooth="yes"/>
      <point x="163" y="-6"/>
      <point x="61" y="110"/>
      <point x="61" y="262" type="curve"/>
      <point x="61" y="430"/>
      <point x="180" y="537"/>
      <point x="335" y="537" type="curve" smooth="yes"/>
      <point x="394" y="537"/>
      <point x="444" y="525"/>
      <point x="488" y="509" type="curve" smooth="yes"/>
      <point x="498" y="505"/>
      <point x="504" y="493"/>
      <point x="500" y="483" type="curve" smooth="yes"/>
    </contour>
    <contour>
      <point x="501" y="53"/>
      <point x="487" y="62"/>
      <point x="487" y="73" type="curve" smooth="yes"/>
      <point x="487" y="247" type="line" smooth="yes"/>
      <point x="487" y="258"/>
      <point x="501" y="267"/>
      <point x="512" y="267" type="curve" smooth="yes"/>
      <point x="523" y="267"/>
      <point x="537" y="258"/>
      <point x="537" y="247" type="curve" smooth="yes"/>
      <point x="537" y="73" type="line" smooth="yes"/>
      <point x="537" y="62"/>
      <point x="523" y="53"/>
      <point x="512" y="53" type="curve" smooth="yes"/>
    </contour>
    <contour>
      <point x="521" y="236"/>
      <point x="512" y="227"/>
      <point x="501" y="227" type="curve" smooth="yes"/>
      <point x="348" y="227" type="line" smooth="yes"/>
      <point x="337" y="227"/>
      <point x="328" y="236"/>
      <point x="328" y="247" type="curve" smooth="yes"/>
      <point x="328" y="258"/>
      <point x="337" y="267"/>
      <point x="348" y="267" type="curve" smooth="yes"/>
      <point x="501" y="267" type="line" smooth="yes"/>
      <point x="512" y="267"/>
      <point x="521" y="258"/>
      <point x="521" y="247" type="curve" smooth="yes"/>
    </contour>
    <contour>
      <point x="326" y="537" type="move" name="top"/>
    </contour>
  </outline>
</glyph>
<glyph name="H" format="1">
  <advance width="631"/>
  <unicode hex="0048"/>
  <outline>
    <contour>
      <point x="148" y="508" type="curve" smooth="yes"/>
      <point x="148" y="23" type="line" smooth="yes"/>
      <point x="148" y="12"/>
      <point x="134" y="3"/>
      <point x="123" y="3" type="curve" smooth="yes"/>
      <point x="112" y="3"/>
      <point x="98" y="12"/>
      <point x="98" y="23" type="curve" smooth="yes"/>
      <point x="98" y="508" type="line" smooth="yes"/>
      <point x="98" y="519"/>
      <point x="112" y="528"/>
      <point x="123" y="528" type="curve" smooth="yes"/>
      <point x="134" y="528"/>
      <point x="148" y="519"/>
    </contour>
    <contour>
      <point x="533" y="508" type="curve" smooth="yes"/>
      <point x="533" y="23" type="line" smooth="yes"/>
      <point x="533" y="12"/>
      <point x="519" y="3"/>
      <point x="508" y="3" type="curve" smooth="yes"/>
      <point x="497" y="3"/>
      <point x="483" y="12"/>
      <point x="483" y="23" type="curve" smooth="yes"/>
      <point x="483" y="508" type="line" smooth="yes"/>
      <point x="483" y="519"/>
      <point x="497" y="528"/>
      <point x="508" y="528" type="curve" smooth="yes"/>
      <point x="519" y="528"/>
      <point x="533" y="519"/>
    </contour>
    <contour>
      <point x="127" y="303" type="curve" smooth="yes"/>
      <point x="507" y="303" type="line" smooth="yes"/>
      <point x="518" y="303"/>
      <point x="527" y="294"/>
      <point x="527" y="283" type="curve" smooth="yes"/>
      <point x="527" y="272"/>
      <point x="518" y="263"/>
      <point x="507" y="263" type="curve" smooth="yes"/>
      <point x="127" y="263" type="line" smooth="yes"/>
      <point x="116" y="263"/>
      <point x="107" y="272"/>
      <point x="107" y="283" type="curve" smooth="yes"/>
      <point x="107" y="294"/>
      <point x="116" y="303"/>
    </contour>
  </outline>
</glyph>
<glyph name="I" format="1">
  <advance width="256"/>
  <unicode hex="0049"/>
  <outline>
    <contour>
      <point x="153" y="508" type="curve" smooth="yes"/>
      <point x="153" y="23" type="line" smooth="yes"/>
      <point x="153" y="12"/>
      <point x="139" y="3"/>
      <point x="128" y="3" type="curve" smooth="yes"/>
      <point x="117" y="3"/>
      <point x="103" y="12"/>
      <point x="103" y="23" type="curve" smooth="yes"/>
      <point x="103" y="508" type="line" smooth="yes"/>
      <point x="103" y="519"/>
      <point x="117" y="528"/>
      <point x="128" y="528" type="curve" smooth="yes"/>
      <point x="139" y="528"/>
      <point x="153" y="519"/>
    </contour>
    <contour>
      <point x="128" y="528" type="move" name="top"/>
    </contour>
  </outline>
</glyph>
<glyph name="J" format="1">
  <advance width="389"/>
  <unicode hex="004A"/>
  <outline>
    <contour>
      <point x="79" y="51" type="curve" smooth="yes"/>
      <point x="106" y="40"/>
      <point x="133" y="34"/>
      <point x="160" y="34" type="curve" smooth="yes"/>
      <point x="228" y="34"/>
      <point x="253" y="86"/>
      <point x="253" y="165" type="curve" smooth="yes"/>
      <point x="253" y="508" type="line" smooth="yes"/>
      <point x="253" y="519"/>
      <point x="267" y="528"/>
      <point x="278" y="528" type="curve" smooth="yes"/>
      <point x="289" y="528"/>
      <point x="303" y="519"/>
      <point x="303" y="508" type="curve" smooth="yes"/>
      <point x="303" y="165" type="line" smooth="yes"/>
      <point x="303" y="44"/>
      <point x="248" y="-6"/>
      <point x="160" y="-6" type="curve" smooth="yes"/>
      <point x="127" y="-6"/>
      <point x="94" y="0"/>
      <point x="63" y="15" type="curve" smooth="yes"/>
      <point x="53" y="19"/>
      <point x="48" y="31"/>
      <point x="53" y="41" type="curve" smooth="yes"/>
      <point x="57" y="51"/>
      <point x="69" y="56"/>
    </contour>
  </outline>
</glyph>
<glyph name="L" format="1">
  <advance width="459"/>
  <unicode hex="004C"/>
  <outline>
    <contour>
      <point x="148" y="508" type="curve" smooth="yes"/>
      <point x="148" y="23" type="line" smooth="yes"/>
      <point x="148" y="12"/>
      <point x="134" y="3"/>
      <point x="123" y="3" type="curve" smooth="yes"/>
      <point x="112" y="3"/>
      <point x="98" y="12"/>
      <point x="98" y="23" type="curve" smooth="yes"/>
      <point x="98" y="508" type="line" smooth="yes"/>
      <point x="98" y="519"/>
      <point x="112" y="528"/>
      <point x="123" y="528" type="curve" smooth="yes"/>
      <point x="134" y="528"/>
      <point x="148" y="519"/>
    </contour>
    <contour>
      <point x="131" y="43" type="curve" smooth="yes"/>
      <point x="394" y="43" type="line" smooth="yes"/>
      <point x="405" y="43"/>
      <point x="414" y="34"/>
      <point x="414" y="23" type="curve" smooth="yes"/>
      <point x="414" y="12"/>
      <point x="405" y="3"/>
      <point x="394" y="3" type="curve" smooth="yes"/>
      <point x="131" y="3" type="line" smooth="yes"/>
      <point x="120" y="3"/>
      <point x="111" y="12"/>
      <point x="111" y="23" type="curve" smooth="yes"/>
      <point x="111" y="34"/>
      <point x="120" y="43"/>
    </contour>
    <contour>
      <point x="124" y="528" type="move" name="top"/>
    </contour>
    <contour>
      <point x="243" y="3" type="move" name="bottom"/>
    </contour>
  </outline>
</glyph>
<glyph name="M" format="1">
  <advance width="820"/>
  <unicode hex="004D"/>
  <outline>
    <contour>
      <point x="197" y="513" type="curve" smooth="yes"/>
      <point x="173" y="370"/>
      <point x="142" y="134"/>
      <point x="130" y="18" type="curve" smooth="yes"/>
      <point x="129" y="8"/>
      <point x="114" y="0"/>
      <point x="103" y="1" type="curve" smooth="yes"/>
      <point x="92" y="2"/>
      <point x="79" y="13"/>
      <point x="80" y="24" type="curve" smooth="yes"/>
      <point x="92" y="140"/>
      <point x="125" y="378"/>
      <point x="149" y="521" type="curve" smooth="yes"/>
      <point x="150" y="532"/>
      <point x="166" y="539"/>
      <point x="176" y="537" type="curve" smooth="yes"/>
      <point x="187" y="535"/>
      <point x="199" y="524"/>
    </contour>
    <contour>
      <point x="656" y="523" type="curve" smooth="yes"/>
      <point x="687" y="366"/>
      <point x="721" y="159"/>
      <point x="739" y="24" type="curve" smooth="yes"/>
      <point x="740" y="14"/>
      <point x="727" y="3"/>
      <point x="717" y="1" type="curve" smooth="yes"/>
      <point x="706" y="0"/>
      <point x="691" y="7"/>
      <point x="689" y="18" type="curve" smooth="yes"/>
      <point x="671" y="151"/>
      <point x="639" y="358"/>
      <point x="608" y="513" type="curve" smooth="yes"/>
      <point x="606" y="524"/>
      <point x="618" y="536"/>
      <point x="628" y="538" type="curve" smooth="yes"/>
      <point x="639" y="540"/>
      <point x="654" y="533"/>
    </contour>
    <contour>
      <point x="206" y="514" type="curve" smooth="yes"/>
      <point x="268" y="387"/>
      <point x="362" y="190"/>
      <point x="429" y="50" type="curve" smooth="yes"/>
      <point x="433" y="40"/>
      <point x="426" y="27"/>
      <point x="417" y="22" type="curve" smooth="yes"/>
      <point x="407" y="17"/>
      <point x="392" y="20"/>
      <point x="387" y="30" type="curve" smooth="yes"/>
      <point x="320" y="170"/>
      <point x="226" y="367"/>
      <point x="164" y="494" type="curve" smooth="yes"/>
      <point x="160" y="504"/>
      <point x="167" y="517"/>
      <point x="176" y="522" type="curve" smooth="yes"/>
      <point x="186" y="527"/>
      <point x="201" y="524"/>
    </contour>
    <contour>
      <point x="390" y="61" type="curve" smooth="yes"/>
      <point x="450" y="198"/>
      <point x="530" y="374"/>
      <point x="605" y="520" type="curve" smooth="yes"/>
      <point x="610" y="530"/>
      <point x="624" y="533"/>
      <point x="634" y="528" type="curve" smooth="yes"/>
      <point x="644" y="523"/>
      <point x="650" y="509"/>
      <point x="645" y="500" type="curve" smooth="yes"/>
      <point x="572" y="354"/>
      <point x="492" y="178"/>
      <point x="432" y="43" type="curve" smooth="yes"/>
      <point x="428" y="33"/>
      <point x="413" y="29"/>
      <point x="403" y="34" type="curve" smooth="yes"/>
      <point x="393" y="38"/>
      <point x="385" y="51"/>
    </contour>
  </outline>
</glyph>
<glyph name="Q" format="1">
  <advance width="640"/>
  <unicode hex="0051"/>
  <outline>
    <contour>
      <point x="341" y="17" type="curve" smooth="yes"/>
      <point x="358" y="-47"/>
      <point x="418" y="-100"/>
      <point x="512" y="-100" type="curve" smooth="yes"/>
      <point x="523" y="-100"/>
      <point x="532" y="-109"/>
      <point x="532" y="-120" type="curve" smooth="yes"/>
      <point x="532" y="-131"/>
      <point x="523" y="-140"/>
      <point x="512" y="-140" type="curve" smooth="yes"/>
      <point x="394" y="-140"/>
      <point x="316" y="-77"/>
      <point x="295" y="5" type="curve" smooth="yes"/>
      <point x="292" y="15"/>
      <point x="303" y="28"/>
      <point x="313" y="30" type="curve" smooth="yes"/>
      <point x="323" y="33"/>
      <point x="339" y="28"/>
    </contour>
    <component base="O"/>
    <component base="O"/>
  </outline>
</glyph>
<glyph name="R" format="1">
  <advance width="541"/>
  <unicode hex="0052"/>
  <outline>
    <contour>
      <point x="139" y="242" type="curve" smooth="yes"/>
      <point x="270" y="242" type="line" smooth="yes"/>
      <point x="365" y="242"/>
      <point x="411" y="299"/>
      <point x="411" y="365" type="curve" smooth="yes"/>
      <point x="411" y="436"/>
      <point x="356" y="488"/>
      <point x="270" y="488" type="curve" smooth="yes"/>
      <point x="123" y="488" type="line"/>
      <point x="148" y="508" type="line"/>
      <point x="148" y="23" type="line" smooth="yes"/>
      <point x="148" y="12"/>
      <point x="134" y="3"/>
      <point x="123" y="3" type="curve" smooth="yes"/>
      <point x="112" y="3"/>
      <point x="98" y="12"/>
      <point x="98" y="23" type="curve" smooth="yes"/>
      <point x="98" y="508" type="line" smooth="yes"/>
      <point x="98" y="519"/>
      <point x="109" y="528"/>
      <point x="123" y="528" type="curve" smooth="yes"/>
      <point x="270" y="528" type="line" smooth="yes"/>
      <point x="384" y="528"/>
      <point x="461" y="462"/>
      <point x="461" y="365" type="curve" smooth="yes"/>
      <point x="461" y="275"/>
      <point x="397" y="202"/>
      <point x="270" y="202" type="curve" smooth="yes"/>
      <point x="139" y="202" type="line" smooth="yes"/>
      <point x="128" y="202"/>
      <point x="119" y="211"/>
      <point x="119" y="222" type="curve" smooth="yes"/>
      <point x="119" y="233"/>
      <point x="128" y="242"/>
    </contour>
    <contour>
      <point x="315" y="230" type="curve" smooth="yes"/>
      <point x="480" y="37" type="line" smooth="yes"/>
      <point x="487" y="29"/>
      <point x="485" y="15"/>
      <point x="477" y="8" type="curve" smooth="yes"/>
      <point x="469" y="1"/>
      <point x="455" y="1"/>
      <point x="448" y="9" type="curve" smooth="yes"/>
      <point x="283" y="202" type="line" smooth="yes"/>
      <point x="276" y="210"/>
      <point x="278" y="224"/>
      <point x="286" y="231" type="curve" smooth="yes"/>
      <point x="294" y="238"/>
      <point x="308" y="238"/>
    </contour>
    <contour>
      <point x="243" y="528" type="move" name="top"/>
    </contour>
    <contour>
      <point x="277" y="11" type="move" name="bottom"/>
    </contour>
  </outline>
</glyph>
<glyph name="U" format="1">
  <advance width="616"/>
  <unicode hex="0055"/>
  <outline>
    <contour>
      <point x="136" y="508" type="curve" smooth="yes"/>
      <point x="136" y="212" type="line" smooth="yes"/>
      <point x="136" y="101"/>
      <point x="203" y="34"/>
      <point x="306" y="34" type="curve" smooth="yes"/>
      <point x="420" y="34"/>
      <point x="480" y="101"/>
      <point x="480" y="215" type="curve" smooth="yes"/>
      <point x="480" y="508" type="line" smooth="yes"/>
      <point x="480" y="519"/>
      <point x="494" y="528"/>
      <point x="505" y="528" type="curve" smooth="yes"/>
      <point x="516" y="528"/>
      <point x="530" y="519"/>
      <point x="530" y="508" type="curve" smooth="yes"/>
      <point x="530" y="215" type="line" smooth="yes"/>
      <point x="530" y="69"/>
      <point x="446" y="-6"/>
      <point x="306" y="-6" type="curve" smooth="yes"/>
      <point x="179" y="-6"/>
      <point x="86" y="69"/>
      <point x="86" y="212" type="curve" smooth="yes"/>
      <point x="86" y="508" type="line" smooth="yes"/>
      <point x="86" y="519"/>
      <point x="100" y="528"/>
      <point x="111" y="528" type="curve" smooth="yes"/>
      <point x="122" y="528"/>
      <point x="136" y="519"/>
    </contour>
    <contour>
      <point x="304" y="509" type="move" name="top"/>
    </contour>
  </outline>
</glyph>
<glyph name="V" format="1">
  <advance width="585"/>
  <unicode hex="0056"/>
  <outline>
    <contour>
      <point x="98" y="516" type="curve" smooth="yes"/>
      <point x="137" y="393"/>
      <point x="270" y="103"/>
      <point x="310" y="30" type="curve" smooth="yes"/>
      <point x="315" y="20"/>
      <point x="309" y="7"/>
      <point x="300" y="1" type="curve" smooth="yes"/>
      <point x="290" y="-4"/>
      <point x="275" y="-1"/>
      <point x="270" y="8" type="curve" smooth="yes"/>
      <point x="230" y="83"/>
      <point x="93" y="377"/>
      <point x="52" y="502" type="curve" smooth="yes"/>
      <point x="49" y="512"/>
      <point x="59" y="525"/>
      <point x="69" y="528" type="curve" smooth="yes"/>
      <point x="79" y="531"/>
      <point x="94" y="527"/>
    </contour>
    <contour>
      <point x="273" y="24" type="curve" smooth="yes"/>
      <point x="317" y="107"/>
      <point x="439" y="374"/>
      <point x="487" y="516" type="curve" smooth="yes"/>
      <point x="491" y="526"/>
      <point x="506" y="530"/>
      <point x="516" y="527" type="curve" smooth="yes"/>
      <point x="527" y="523"/>
      <point x="536" y="511"/>
      <point x="533" y="500" type="curve" smooth="yes"/>
      <point x="483" y="356"/>
      <point x="357" y="87"/>
      <point x="313" y="2" type="curve" smooth="yes"/>
      <point x="308" y="-7"/>
      <point x="293" y="-10"/>
      <point x="284" y="-5" type="curve" smooth="yes"/>
      <point x="274" y="0"/>
      <point x="268" y="14"/>
    </contour>
  </outline>
</glyph>
<glyph name="X" format="1">
  <advance width="563"/>
  <unicode hex="0058"/>
  <outline>
    <contour>
      <point x="116" y="520" type="curve" smooth="yes"/>
      <point x="212" y="380"/>
      <point x="438" y="120"/>
      <point x="497" y="36" type="curve" smooth="yes"/>
      <point x="503" y="27"/>
      <point x="499" y="13"/>
      <point x="490" y="7" type="curve" smooth="yes"/>
      <point x="482" y="0"/>
      <point x="467" y="2"/>
      <point x="461" y="10" type="curve" smooth="yes"/>
      <point x="402" y="94"/>
      <point x="176" y="356"/>
      <point x="80" y="496" type="curve" smooth="yes"/>
      <point x="74" y="505"/>
      <point x="78" y="518"/>
      <point x="87" y="524" type="curve" smooth="yes"/>
      <point x="96" y="531"/>
      <point x="110" y="529"/>
    </contour>
    <contour>
      <point x="68" y="36" type="curve" smooth="yes"/>
      <point x="146" y="143"/>
      <point x="355" y="387"/>
      <point x="440" y="520" type="curve" smooth="yes"/>
      <point x="446" y="529"/>
      <point x="461" y="531"/>
      <point x="470" y="525" type="curve" smooth="yes"/>
      <point x="479" y="519"/>
      <point x="483" y="505"/>
      <point x="478" y="496" type="curve" smooth="yes"/>
      <point x="391" y="363"/>
      <point x="182" y="117"/>
      <point x="102" y="10" type="curve" smooth="yes"/>
      <point x="96" y="1"/>
      <point x="82" y="0"/>
      <point x="73" y="7" type="curve" smooth="yes"/>
      <point x="64" y="13"/>
      <point x="61" y="27"/>
    </contour>
  </outline>
</glyph>
<glyph name="Z" format="1">
  <advance width="563"/>
  <unicode hex="005A"/>
  <outline>
    <contour>
      <point x="480" y="496" type="curve" smooth="yes"/>
      <point x="417" y="401"/>
      <point x="165" y="101"/>
      <point x="112" y="19" type="curve" smooth="yes"/>
      <point x="106" y="10"/>
      <point x="91" y="8"/>
      <point x="82" y="14" type="curve" smooth="yes"/>
      <point x="73" y="20"/>
      <point x="69" y="34"/>
      <point x="74" y="43" type="curve" smooth="yes"/>
      <point x="127" y="125"/>
      <point x="381" y="425"/>
      <point x="444" y="520" type="curve" smooth="yes"/>
      <point x="450" y="529"/>
      <point x="464" y="531"/>
      <point x="473" y="525" type="curve" smooth="yes"/>
      <point x="482" y="519"/>
      <point x="486" y="505"/>
    </contour>
    <contour>
      <point x="102" y="528" type="curve" smooth="yes"/>
      <point x="451" y="528" type="line" smooth="yes"/>
      <point x="462" y="528"/>
      <point x="471" y="519"/>
      <point x="471" y="508" type="curve" smooth="yes"/>
      <point x="471" y="497"/>
      <point x="462" y="488"/>
      <point x="451" y="488" type="curve" smooth="yes"/>
      <point x="102" y="488" type="line" smooth="yes"/>
      <point x="91" y="488"/>
      <point x="82" y="497"/>
      <point x="82" y="508" type="curve" smooth="yes"/>
      <point x="82" y="519"/>
      <point x="91" y="528"/>
    </contour>
    <contour>
      <point x="89" y="43" type="curve" smooth="yes"/>
      <point x="474" y="43" type="line" smooth="yes"/>
      <point x="485" y="43"/>
      <point x="494" y="34"/>
      <point x="494" y="23" type="curve" smooth="yes"/>
      <point x="494" y="12"/>
      <point x="485" y="3"/>
      <point x="474" y="3" type="curve" smooth="yes"/>
      <point x="89" y="3" type="line" smooth="yes"/>
      <point x="78" y="3"/>
      <point x="69" y="12"/>
      <point x="69" y="23" type="curve" smooth="yes"/>
      <point x="69" y="34"/>
      <point x="78" y="43"/>
    </contour>
    <contour>
      <point x="276" y="527" type="move" name="top"/>
    </contour>
  </outline>
</glyph>
<glyph name="bracketleft" format="1">
  <advance width="335"/>
  <unicode hex="005B"/>
  <outline>
    <contour>
      <point x="233" y="583" type="curve" smooth="yes"/>
      <point x="98" y="583" type="line"/>
      <point x="123" y="603" type="line"/>
      <point x="123" y="-76" type="line"/>
      <point x="98" y="-56" type="line"/>
      <point x="233" y="-56" type="line" smooth="yes"/>
      <point x="244" y="-56"/>
      <point x="253" y="-65"/>
      <point x="253" y="-76" type="curve" smooth="yes"/>
      <point x="253" y="-87"/>
      <point x="244" y="-96"/>
      <point x="233" y="-96" type="curve" smooth="yes"/>
      <point x="98" y="-96" type="line" smooth="yes"/>
      <point x="84" y="-96"/>
      <point x="73" y="-87"/>
      <point x="73" y="-76" type="curve" smooth="yes"/>
      <point x="73" y="603" type="line" smooth="yes"/>
      <point x="73" y="614"/>
      <point x="84" y="623"/>
      <point x="98" y="623" type="curve" smooth="yes"/>
      <point x="233" y="623" type="line" smooth="yes"/>
      <point x="244" y="623"/>
      <point x="253" y="614"/>
      <point x="253" y="603" type="curve" smooth="yes"/>
      <point x="253" y="592"/>
      <point x="244" y="583"/>
    </contour>
  </outline>
</glyph>
<glyph name="c" format="1">
  <advance width="436"/>
  <unicode hex="0063"/>
  <outline>
    <contour>
      <point x="343" y="331" type="curve" smooth="yes"/>
      <point x="318" y="339"/>
      <point x="287" y="345"/>
      <point x="260" y="345" type="curve" smooth="yes"/>
      <point x="155" y="345"/>
      <point x="99" y="275"/>
      <point x="99" y="185" type="curve" smooth="yes"/>
      <point x="99" y="106"/>
      <point x="155" y="43"/>
      <point x="259" y="43" type="curve" smooth="yes"/>
      <point x="297" y="43"/>
      <point x="328" y="50"/>
      <point x="354" y="61" type="curve" smooth="yes"/>
      <point x="364" y="65"/>
      <point x="376" y="59"/>
      <point x="380" y="49" type="curve" smooth="yes"/>
      <point x="384" y="39"/>
      <point x="378" y="27"/>
      <point x="368" y="23" type="curve" smooth="yes"/>
      <point x="338" y="12"/>
      <point x="303" y="3"/>
      <point x="259" y="3" type="curve" smooth="yes"/>
      <point x="125" y="3"/>
      <point x="49" y="82"/>
      <point x="49" y="185" type="curve"/>
      <point x="49" y="303"/>
      <point x="129" y="385"/>
      <point x="260" y="385" type="curve" smooth="yes"/>
      <point x="291" y="385"/>
      <point x="326" y="379"/>
      <point x="355" y="369" type="curve" smooth="yes"/>
      <point x="366" y="366"/>
      <point x="371" y="354"/>
      <point x="368" y="344" type="curve" smooth="yes"/>
      <point x="365" y="333"/>
      <point x="353" y="328"/>
    </contour>
    <contour>
      <point x="248" y="386" type="move" name="top"/>
    </contour>
    <contour>
      <point x="247" y="3" type="move" name="bottom"/>
    </contour>
  </outline>
</glyph>
<glyph name="e" format="1">
  <advance width="460"/>
  <unicode hex="0065"/>
  <outline>
    <contour>
      <point x="87" y="213" type="curve" smooth="yes"/>
      <point x="296" y="213" type="line" smooth="yes"/>
      <point x="337" y="213"/>
      <point x="353" y="229"/>
      <point x="353" y="255" type="curve" smooth="yes"/>
      <point x="353" y="294"/>
      <point x="310" y="345"/>
      <point x="242" y="345" type="curve" smooth="yes"/>
      <point x="160" y="345"/>
      <point x="99" y="278"/>
      <point x="99" y="189" type="curve" smooth="yes"/>
      <point x="99" y="95"/>
      <point x="164" y="43"/>
      <point x="262" y="43" type="curve" smooth="yes"/>
      <point x="295" y="43"/>
      <point x="328" y="50"/>
      <point x="352" y="60" type="curve" smooth="yes"/>
      <point x="362" y="64"/>
      <point x="374" y="58"/>
      <point x="378" y="48" type="curve" smooth="yes"/>
      <point x="382" y="38"/>
      <point x="376" y="26"/>
      <point x="366" y="22" type="curve" smooth="yes"/>
      <point x="338" y="12"/>
      <point x="301" y="3"/>
      <point x="262" y="3" type="curve" smooth="yes"/>
      <point x="138" y="3"/>
      <point x="49" y="67"/>
      <point x="49" y="189" type="curve"/>
      <point x="49" y="310"/>
      <point x="138" y="385"/>
      <point x="242" y="385" type="curve" smooth="yes"/>
      <point x="340" y="385"/>
      <point x="403" y="312"/>
      <point x="403" y="255" type="curve" smooth="yes"/>
      <point x="403" y="205"/>
      <point x="375" y="173"/>
      <point x="296" y="173" type="curve" smooth="yes"/>
      <point x="87" y="173" type="line" smooth="yes"/>
      <point x="76" y="173"/>
      <point x="67" y="182"/>
      <point x="67" y="193" type="curve" smooth="yes"/>
      <point x="67" y="204"/>
      <point x="76" y="213"/>
    </contour>
    <contour>
      <point x="236" y="386" type="move" name="top"/>
    </contour>
    <contour>
      <point x="243" y="4" type="move" name="bottom"/>
    </contour>
  </outline>
</glyph>
<glyph name="f" format="1">
  <advance width="318"/>
  <unicode hex="0066"/>
  <outline>
    <contour>
      <point x="271" y="540" type="curve" smooth="yes"/>
      <point x="184" y="535"/>
      <point x="159" y="496"/>
      <point x="159" y="438" type="curve" smooth="yes"/>
      <point x="159" y="23" type="line" smooth="yes"/>
      <point x="159" y="12"/>
      <point x="145" y="3"/>
      <point x="134" y="3" type="curve" smooth="yes"/>
      <point x="123" y="3"/>
      <point x="109" y="12"/>
      <point x="109" y="23" type="curve" smooth="yes"/>
      <point x="109" y="438" type="line" smooth="yes"/>
      <point x="109" y="520"/>
      <point x="148" y="573"/>
      <point x="269" y="580" type="curve" smooth="yes"/>
      <point x="280" y="581"/>
      <point x="289" y="572"/>
      <point x="290" y="561" type="curve" smooth="yes"/>
      <point x="291" y="550"/>
      <point x="282" y="541"/>
    </contour>
    <contour>
      <point x="46" y="385" type="curve" smooth="yes"/>
      <point x="272" y="385" type="line" smooth="yes"/>
      <point x="283" y="385"/>
      <point x="292" y="376"/>
      <point x="292" y="365" type="curve" smooth="yes"/>
      <point x="292" y="354"/>
      <point x="283" y="345"/>
      <point x="272" y="345" type="curve" smooth="yes"/>
      <point x="46" y="345" type="line" smooth="yes"/>
      <point x="35" y="345"/>
      <point x="26" y="354"/>
      <point x="26" y="365" type="curve" smooth="yes"/>
      <point x="26" y="376"/>
      <point x="35" y="385"/>
    </contour>
  </outline>
</glyph>
<glyph name="h" format="1">
  <advance width="497"/>
  <unicode hex="0068"/>
  <outline>
    <contour>
      <point x="85" y="23" type="curve" smooth="yes"/>
      <point x="85" y="534" type="line" smooth="yes"/>
      <point x="85" y="545"/>
      <point x="99" y="554"/>
      <point x="110" y="554" type="curve" smooth="yes"/>
      <point x="121" y="554"/>
      <point x="135" y="545"/>
      <point x="135" y="534" type="curve" smooth="yes"/>
      <point x="135" y="23" type="line" smooth="yes"/>
      <point x="135" y="12"/>
      <point x="121" y="3"/>
      <point x="110" y="3" type="curve" smooth="yes"/>
      <point x="99" y="3"/>
      <point x="85" y="12"/>
    </contour>
    <contour>
      <point x="372" y="23" type="curve" smooth="yes"/>
      <point x="372" y="223" type="line" smooth="yes"/>
      <point x="372" y="305"/>
      <point x="340" y="345"/>
      <point x="285" y="345" type="curve" smooth="yes"/>
      <point x="227" y="345"/>
      <point x="173" y="307"/>
      <point x="129" y="263" type="curve" smooth="yes"/>
      <point x="121" y="256"/>
      <point x="107" y="256"/>
      <point x="100" y="264" type="curve" smooth="yes"/>
      <point x="92" y="271"/>
      <point x="92" y="285"/>
      <point x="99" y="293" type="curve" smooth="yes"/>
      <point x="151" y="345"/>
      <point x="217" y="385"/>
      <point x="285" y="385" type="curve" smooth="yes"/>
      <point x="358" y="385"/>
      <point x="422" y="351"/>
      <point x="422" y="223" type="curve" smooth="yes"/>
      <point x="422" y="23" type="line" smooth="yes"/>
      <point x="422" y="12"/>
      <point x="408" y="3"/>
      <point x="397" y="3" type="curve" smooth="yes"/>
      <point x="386" y="3"/>
      <point x="372" y="12"/>
    </contour>
  </outline>
</glyph>
<glyph name="j" format="1">
  <advance width="232"/>
  <unicode hex="006A"/>
  <outline>
    <contour>
      <point x="116" y="593" type="curve" smooth="yes"/>
      <point x="137" y="593"/>
      <point x="159" y="578"/>
      <point x="159" y="547" type="curve" smooth="yes"/>
      <point x="159" y="515"/>
      <point x="137" y="503"/>
      <point x="117" y="503" type="curve" smooth="yes"/>
      <point x="95" y="503"/>
      <point x="73" y="517"/>
      <point x="73" y="547" type="curve" smooth="yes"/>
      <point x="73" y="578"/>
      <point x="95" y="593"/>
    </contour>
    <contour>
      <point x="-1" y="-116" type="curve" smooth="yes"/>
      <point x="61" y="-92"/>
      <point x="91" y="-43"/>
      <point x="91" y="42" type="curve" smooth="yes"/>
      <point x="91" y="365" type="line" smooth="yes"/>
      <point x="91" y="376"/>
      <point x="105" y="385"/>
      <point x="116" y="385" type="curve" smooth="yes"/>
      <point x="127" y="385"/>
      <point x="141" y="376"/>
      <point x="141" y="365" type="curve" smooth="yes"/>
      <point x="141" y="42" type="line" smooth="yes"/>
      <point x="141" y="-71"/>
      <point x="91" y="-124"/>
      <point x="13" y="-154" type="curve" smooth="yes"/>
      <point x="3" y="-158"/>
      <point x="-9" y="-152"/>
      <point x="-13" y="-142" type="curve" smooth="yes"/>
      <point x="-17" y="-132"/>
      <point x="-11" y="-120"/>
    </contour>
  </outline>
</glyph>
<glyph name="k" format="1">
  <advance width="469"/>
  <unicode hex="006B"/>
  <outline>
    <contour>
      <point x="85" y="23" type="curve" smooth="yes"/>
      <point x="85" y="534" type="line" smooth="yes"/>
      <point x="85" y="545"/>
      <point x="99" y="554"/>
      <point x="110" y="554" type="curve" smooth="yes"/>
      <point x="121" y="554"/>
      <point x="135" y="545"/>
      <point x="135" y="534" type="curve" smooth="yes"/>
      <point x="135" y="23" type="line" smooth="yes"/>
      <point x="135" y="12"/>
      <point x="121" y="3"/>
      <point x="110" y="3" type="curve" smooth="yes"/>
      <point x="99" y="3"/>
      <point x="85" y="12"/>
    </contour>
    <contour>
      <point x="252" y="262" type="curve" smooth="yes"/>
      <point x="413" y="36" type="line" smooth="yes"/>
      <point x="419" y="27"/>
      <point x="415" y="13"/>
      <point x="407" y="7" type="curve" smooth="yes"/>
      <point x="398" y="0"/>
      <point x="384" y="2"/>
      <point x="377" y="10" type="curve" smooth="yes"/>
      <point x="216" y="236" type="line" smooth="yes"/>
      <point x="210" y="245"/>
      <point x="214" y="259"/>
      <point x="222" y="265" type="curve" smooth="yes"/>
      <point x="231" y="272"/>
      <point x="245" y="270"/>
    </contour>
    <contour>
      <point x="395" y="349" type="curve" smooth="yes"/>
      <point x="125" y="137" type="line" smooth="yes"/>
      <point x="116" y="130"/>
      <point x="103" y="132"/>
      <point x="96" y="141" type="curve" smooth="yes"/>
      <point x="90" y="149"/>
      <point x="91" y="162"/>
      <point x="99" y="169" type="curve" smooth="yes"/>
      <point x="369" y="381" type="line" smooth="yes"/>
      <point x="378" y="388"/>
      <point x="391" y="386"/>
      <point x="398" y="377" type="curve" smooth="yes"/>
      <point x="404" y="369"/>
      <point x="403" y="356"/>
    </contour>
    <contour>
      <point x="240" y="11" type="move" name="bottom"/>
    </contour>
  </outline>
</glyph>
<glyph name="o" format="1">
  <advance width="495"/>
  <unicode hex="006F"/>
  <outline>
    <contour>
      <point x="247" y="389" type="curve" smooth="yes"/>
      <point x="366" y="389"/>
      <point x="446" y="302"/>
      <point x="446" y="189" type="curve" smooth="yes"/>
      <point x="446" y="79"/>
      <point x="365" y="-1"/>
      <point x="247" y="-1" type="curve" smooth="yes"/>
      <point x="129" y="-1"/>
      <point x="48" y="80"/>
      <point x="48" y="191" type="curve"/>
      <point x="48" y="302"/>
      <point x="127" y="389"/>
    </contour>
    <contour>
      <point x="247" y="349" type="curve" smooth="yes"/>
      <point x="151" y="349"/>
      <point x="98" y="274"/>
      <point x="98" y="191" type="curve" smooth="yes"/>
      <point x="98" y="108"/>
      <point x="153" y="39"/>
      <point x="247" y="39" type="curve" smooth="yes"/>
      <point x="341" y="39"/>
      <point x="396" y="107"/>
      <point x="396" y="189" type="curve" smooth="yes"/>
      <point x="396" y="274"/>
      <point x="342" y="349"/>
    </contour>
    <contour>
      <point x="247" y="389" type="move" name="top"/>
    </contour>
    <contour>
      <point x="247" y="0" type="move" name="bottom"/>
    </contour>
  </outline>
</glyph>
<glyph name="q" format="1">
  <advance width="505"/>
  <unicode hex="0071"/>
  <outline>
    <contour>
      <point x="420" y="365" type="curve" smooth="yes"/>
      <point x="420" y="-168" type="line" smooth="yes"/>
      <point x="420" y="-179"/>
      <point x="406" y="-188"/>
      <point x="395" y="-188" type="curve" smooth="yes"/>
      <point x="384" y="-188"/>
      <point x="370" y="-179"/>
      <point x="370" y="-168" type="curve" smooth="yes"/>
      <point x="370" y="365" type="line" smooth="yes"/>
      <point x="370" y="376"/>
      <point x="384" y="385"/>
      <point x="395" y="385" type="curve" smooth="yes"/>
      <point x="406" y="385"/>
      <point x="420" y="376"/>
    </contour>
    <contour>
      <point x="384" y="307" type="curve" smooth="yes"/>
      <point x="346" y="331"/>
      <point x="305" y="345"/>
      <point x="251" y="345" type="curve" smooth="yes"/>
      <point x="166" y="345"/>
      <point x="99" y="279"/>
      <point x="99" y="179" type="curve" smooth="yes"/>
      <point x="99" y="98"/>
      <point x="156" y="43"/>
      <point x="222" y="43" type="curve" smooth="yes"/>
      <point x="280" y="43"/>
      <point x="335" y="78"/>
      <point x="375" y="143" type="curve" smooth="yes"/>
      <point x="381" y="152"/>
      <point x="395" y="154"/>
      <point x="404" y="148" type="curve" smooth="yes"/>
      <point x="414" y="142"/>
      <point x="419" y="129"/>
      <point x="413" y="119" type="curve" smooth="yes"/>
      <point x="363" y="38"/>
      <point x="292" y="3"/>
      <point x="222" y="3" type="curve" smooth="yes"/>
      <point x="136" y="3"/>
      <point x="49" y="64"/>
      <point x="49" y="179" type="curve"/>
      <point x="49" y="311"/>
      <point x="146" y="385"/>
      <point x="251" y="385" type="curve" smooth="yes"/>
      <point x="313" y="385"/>
      <point x="362" y="369"/>
      <point x="406" y="341" type="curve" smooth="yes"/>
      <point x="415" y="335"/>
      <point x="418" y="322"/>
      <point x="412" y="313" type="curve" smooth="yes"/>
      <point x="406" y="304"/>
      <point x="393" y="301"/>
    </contour>
  </outline>
</glyph>
<glyph name="u" format="1">
  <advance width="497"/>
  <unicode hex="0075"/>
  <outline>
    <contour>
      <point x="412" y="365" type="curve" smooth="yes"/>
      <point x="412" y="23" type="line" smooth="yes"/>
      <point x="412" y="12"/>
      <point x="398" y="3"/>
      <point x="387" y="3" type="curve" smooth="yes"/>
      <point x="376" y="3"/>
      <point x="362" y="12"/>
      <point x="362" y="23" type="curve" smooth="yes"/>
      <point x="362" y="365" type="line" smooth="yes"/>
      <point x="362" y="376"/>
      <point x="376" y="385"/>
      <point x="387" y="385" type="curve" smooth="yes"/>
      <point x="398" y="385"/>
      <point x="412" y="376"/>
    </contour>
    <contour>
      <point x="125" y="365" type="curve" smooth="yes"/>
      <point x="125" y="165" type="line" smooth="yes"/>
      <point x="125" y="83"/>
      <point x="157" y="43"/>
      <point x="212" y="43" type="curve" smooth="yes"/>
      <point x="270" y="43"/>
      <point x="328" y="91"/>
      <point x="365" y="143" type="curve" smooth="yes"/>
      <point x="372" y="151"/>
      <point x="386" y="153"/>
      <point x="395" y="146" type="curve" smooth="yes"/>
      <point x="403" y="140"/>
      <point x="407" y="126"/>
      <point x="401" y="117" type="curve" smooth="yes"/>
      <point x="354" y="53"/>
      <point x="280" y="3"/>
      <point x="212" y="3" type="curve" smooth="yes"/>
      <point x="139" y="3"/>
      <point x="75" y="37"/>
      <point x="75" y="165" type="curve" smooth="yes"/>
      <point x="75" y="365" type="line" smooth="yes"/>
      <point x="75" y="376"/>
      <point x="89" y="385"/>
      <point x="100" y="385" type="curve" smooth="yes"/>
      <point x="111" y="385"/>
      <point x="125" y="376"/>
    </contour>
    <contour>
      <point x="239" y="374" type="move" name="top"/>
    </contour>
  </outline>
</glyph>
<glyph name="v" format="1">
  <advance width="451"/>
  <unicode hex="0076"/>
  <outline>
    <contour>
      <point x="85" y="373" type="curve" smooth="yes"/>
      <point x="143" y="222"/>
      <point x="195" y="116"/>
      <point x="248" y="31" type="curve"/>
      <point x="229" y="39" type="line"/>
      <point x="232" y="39" type="line"/>
      <point x="213" y="31" type="line"/>
      <point x="264" y="116"/>
      <point x="327" y="264"/>
      <point x="367" y="373" type="curve" smooth="yes"/>
      <point x="370" y="383"/>
      <point x="386" y="387"/>
      <point x="396" y="384" type="curve" smooth="yes"/>
      <point x="406" y="380"/>
      <point x="415" y="367"/>
      <point x="411" y="357" type="curve" smooth="yes"/>
      <point x="371" y="246"/>
      <point x="304" y="94"/>
      <point x="251" y="7" type="curve" smooth="yes"/>
      <point x="248" y="3"/>
      <point x="240" y="-1"/>
      <point x="232" y="-1" type="curve" smooth="yes"/>
      <point x="229" y="-1" type="line" smooth="yes"/>
      <point x="221" y="-1"/>
      <point x="213" y="3"/>
      <point x="210" y="7" type="curve" smooth="yes"/>
      <point x="157" y="94"/>
      <point x="101" y="202"/>
      <point x="41" y="357" type="curve" smooth="yes"/>
      <point x="37" y="367"/>
      <point x="46" y="380"/>
      <point x="56" y="384" type="curve" smooth="yes"/>
      <point x="66" y="388"/>
      <point x="81" y="384"/>
    </contour>
  </outline>
</glyph>
<glyph name="y" format="1">
  <advance width="450"/>
  <unicode hex="0079"/>
  <outline>
    <contour>
      <point x="53" y="-134" type="curve" smooth="yes"/>
      <point x="113" y="-99"/>
      <point x="166" y="-55"/>
      <point x="220" y="35" type="curve" smooth="yes"/>
      <point x="272" y="124"/>
      <point x="330" y="261"/>
      <point x="363" y="372" type="curve" smooth="yes"/>
      <point x="366" y="382"/>
      <point x="381" y="387"/>
      <point x="392" y="384" type="curve" smooth="yes"/>
      <point x="402" y="381"/>
      <point x="412" y="368"/>
      <point x="409" y="358" type="curve" smooth="yes"/>
      <point x="374" y="243"/>
      <point x="312" y="104"/>
      <point x="258" y="13" type="curve" smooth="yes"/>
      <point x="200" y="-87"/>
      <point x="139" y="-131"/>
      <point x="73" y="-168" type="curve" smooth="yes"/>
      <point x="64" y="-174"/>
      <point x="51" y="-170"/>
      <point x="46" y="-161" type="curve" smooth="yes"/>
      <point x="40" y="-152"/>
      <point x="44" y="-139"/>
    </contour>
    <contour>
      <point x="87" y="374" type="curve" smooth="yes"/>
      <point x="141" y="223"/>
      <point x="204" y="114"/>
      <point x="255" y="36" type="curve" smooth="yes"/>
      <point x="260" y="27"/>
      <point x="256" y="13"/>
      <point x="247" y="7" type="curve" smooth="yes"/>
      <point x="238" y="1"/>
      <point x="223" y="3"/>
      <point x="217" y="12" type="curve" smooth="yes"/>
      <point x="166" y="92"/>
      <point x="97" y="203"/>
      <point x="43" y="358" type="curve" smooth="yes"/>
      <point x="39" y="368"/>
      <point x="48" y="381"/>
      <point x="58" y="385" type="curve" smooth="yes"/>
      <point x="69" y="388"/>
      <point x="84" y="384"/>
    </contour>
    <contour>
      <point x="221" y="372" type="move" name="top"/>
    </contour>
  </outline>
</glyph>
<glyph name="braceleft" format="1">
  <advance width="412"/>
  <unicode hex="007B"/>
  <outline>
    <contour>
      <point x="310" y="583" type="curve" smooth="yes"/>
      <point x="290" y="583" type="line" smooth="yes"/>
      <point x="210" y="583"/>
      <point x="157" y="543"/>
      <point x="157" y="495" type="curve" smooth="yes"/>
      <point x="157" y="430"/>
      <point x="224" y="395"/>
      <point x="224" y="337" type="curve" smooth="yes"/>
      <point x="224" y="293"/>
      <point x="187" y="259"/>
      <point x="100" y="246" type="curve"/>
      <point x="122" y="266" type="line"/>
      <point x="122" y="260" type="line"/>
      <point x="100" y="280" type="line"/>
      <point x="187" y="267"/>
      <point x="224" y="233"/>
      <point x="224" y="189" type="curve" smooth="yes"/>
      <point x="224" y="131"/>
      <point x="157" y="96"/>
      <point x="157" y="31" type="curve" smooth="yes"/>
      <point x="157" y="-17"/>
      <point x="210" y="-57"/>
      <point x="290" y="-57" type="curve" smooth="yes"/>
      <point x="310" y="-57" type="line" smooth="yes"/>
      <point x="321" y="-57"/>
      <point x="330" y="-66"/>
      <point x="330" y="-77" type="curve" smooth="yes"/>
      <point x="330" y="-88"/>
      <point x="321" y="-97"/>
      <point x="310" y="-97" type="curve" smooth="yes"/>
      <point x="290" y="-97" type="line" smooth="yes"/>
      <point x="174" y="-97"/>
      <point x="107" y="-35"/>
      <point x="107" y="31" type="curve" smooth="yes"/>
      <point x="107" y="96"/>
      <point x="174" y="131"/>
      <point x="174" y="189" type="curve" smooth="yes"/>
      <point x="174" y="217"/>
      <point x="143" y="233"/>
      <point x="94" y="240" type="curve" smooth="yes"/>
      <point x="82" y="242"/>
      <point x="72" y="251"/>
      <point x="72" y="260" type="curve" smooth="yes"/>
      <point x="72" y="266" type="line" smooth="yes"/>
      <point x="72" y="275"/>
      <point x="82" y="284"/>
      <point x="94" y="286" type="curve" smooth="yes"/>
      <point x="143" y="293"/>
      <point x="174" y="309"/>
      <point x="174" y="337" type="curve" smooth="yes"/>
      <point x="174" y="395"/>
      <point x="107" y="430"/>
      <point x="107" y="495" type="curve" smooth="yes"/>
      <point x="107" y="561"/>
      <point x="174" y="623"/>
      <point x="290" y="623" type="curve" smooth="yes"/>
      <point x="310" y="623" type="line" smooth="yes"/>
      <point x="321" y="623"/>
      <point x="330" y="614"/>
      <point x="330" y="603" type="curve" smooth="yes"/>
      <point x="330" y="592"/>
      <point x="321" y="583"/>
    </contour>
  </outline>
</glyph>
<glyph name="bar" format="1">
  <advance width="300"/>
  <unicode hex="007C"/>
  <outline>
    <contour>
      <point x="175" y="604" type="curve" smooth="yes"/>
      <point x="175" y="-78" type="line" smooth="yes"/>
      <point x="175" y="-89"/>
      <point x="161" y="-98"/>
      <point x="150" y="-98" type="curve" smooth="yes"/>
      <point x="139" y="-98"/>
      <point x="125" y="-89"/>
      <point x="125" y="-78" type="curve" smooth="yes"/>
      <point x="125" y="604" type="line" smooth="yes"/>
      <point x="125" y="615"/>
      <point x="139" y="624"/>
      <point x="150" y="624" type="curve" smooth="yes"/>
      <point x="161" y="624"/>
      <point x="175" y="615"/>
    </contour>
  </outline>
</glyph>
<glyph name="asciitilde" format="1">
  <advance width="612"/>
  <unicode hex="007E"/>
  <outline>
    <contour>
      <point x="92" y="218" type="curve" smooth="yes"/>
      <point x="134" y="303"/>
      <point x="174" y="336"/>
      <point x="222" y="336" type="curve" smooth="yes"/>
      <point x="263" y="336"/>
      <point x="290" y="310"/>
      <point x="325" y="272" type="curve" smooth="yes"/>
      <point x="351" y="242"/>
      <point x="371" y="220"/>
      <point x="400" y="220" type="curve" smooth="yes"/>
      <point x="443" y="220"/>
      <point x="463" y="263"/>
      <point x="495" y="330" type="curve" smooth="yes"/>
      <point x="500" y="340"/>
      <point x="515" y="343"/>
      <point x="525" y="338" type="curve" smooth="yes"/>
      <point x="534" y="333"/>
      <point x="541" y="320"/>
      <point x="537" y="310" type="curve" smooth="yes"/>
      <point x="491" y="213"/>
      <point x="453" y="180"/>
      <point x="400" y="180" type="curve" smooth="yes"/>
      <point x="361" y="180"/>
      <point x="329" y="202"/>
      <point x="293" y="244" type="curve" smooth="yes"/>
      <point x="270" y="270"/>
      <point x="253" y="296"/>
      <point x="222" y="296" type="curve" smooth="yes"/>
      <point x="184" y="296"/>
      <point x="162" y="255"/>
      <point x="134" y="198" type="curve" smooth="yes"/>
      <point x="129" y="188"/>
      <point x="114" y="185"/>
      <point x="104" y="190" type="curve" smooth="yes"/>
      <point x="94" y="195"/>
      <point x="88" y="208"/>
    </contour>
  </outline>
</glyph>
<glyph name="sterling" format="1">
  <advance width="456"/>
  <unicode hex="00A3"/>
  <outline>
    <contour>
      <point x="52" y="47" type="curve" smooth="yes"/>
      <point x="129" y="117" type="line" smooth="yes"/>
      <point x="153" y="139"/>
      <point x="168" y="167"/>
      <point x="168" y="190" type="curve" smooth="yes"/>
      <point x="168" y="211"/>
      <point x="158" y="240"/>
      <point x="138" y="263" type="curve" smooth="yes"/>
      <point x="96" y="313"/>
      <point x="67" y="350"/>
      <point x="67" y="404" type="curve" smooth="yes"/>
      <point x="67" y="473"/>
      <point x="121" y="537"/>
      <point x="214" y="537" type="curve" smooth="yes"/>
      <point x="264" y="537"/>
      <point x="310" y="522"/>
      <point x="348" y="498" type="curve" smooth="yes"/>
      <point x="357" y="492"/>
      <point x="360" y="480"/>
      <point x="354" y="470" type="curve" smooth="yes"/>
      <point x="348" y="461"/>
      <point x="335" y="458"/>
      <point x="326" y="464" type="curve" smooth="yes"/>
      <point x="294" y="484"/>
      <point x="256" y="497"/>
      <point x="214" y="497" type="curve" smooth="yes"/>
      <point x="149" y="497"/>
      <point x="117" y="449"/>
      <point x="117" y="404" type="curve" smooth="yes"/>
      <point x="117" y="362"/>
      <point x="136" y="331"/>
      <point x="170" y="291" type="curve" smooth="yes"/>
      <point x="198" y="258"/>
      <point x="218" y="221"/>
      <point x="218" y="190" type="curve" smooth="yes"/>
      <point x="218" y="155"/>
      <point x="191" y="117"/>
      <point x="157" y="87" type="curve" smooth="yes"/>
      <point x="80" y="17" type="line" smooth="yes"/>
      <point x="72" y="9"/>
      <point x="58" y="11"/>
      <point x="51" y="19" type="curve" smooth="yes"/>
      <point x="44" y="27"/>
      <point x="44" y="40"/>
    </contour>
    <contour>
      <point x="370" y="3" type="curve" smooth="yes"/>
      <point x="56" y="3" type="line" smooth="yes"/>
      <point x="45" y="3"/>
      <point x="36" y="12"/>
      <point x="36" y="23" type="curve" smooth="yes"/>
      <point x="36" y="34"/>
      <point x="45" y="43"/>
      <point x="56" y="43" type="curve" smooth="yes"/>
      <point x="370" y="43" type="line" smooth="yes"/>
      <point x="381" y="43"/>
      <point x="390" y="34"/>
      <point x="390" y="23" type="curve" smooth="yes"/>
      <point x="390" y="12"/>
      <point x="381" y="3"/>
    </contour>
    <contour>
      <point x="62" y="268" type="curve" smooth="yes"/>
      <point x="361" y="268" type="line" smooth="yes"/>
      <point x="372" y="268"/>
      <point x="381" y="259"/>
      <point x="381" y="248" type="curve" smooth="yes"/>
      <point x="381" y="237"/>
      <point x="372" y="228"/>
      <point x="361" y="228" type="curve" smooth="yes"/>
      <point x="62" y="228" type="line" smooth="yes"/>
      <point x="51" y="228"/>
      <point x="42" y="237"/>
      <point x="42" y="248" type="curve" smooth="yes"/>
      <point x="42" y="259"/>
      <point x="51" y="268"/>
    </contour>
  </outline>
</glyph>
<glyph name="currency" format="1">
  <advance width="521"/>
  <unicode hex="00A4"/>
  <outline>
    <contour>
      <point x="260" y="406" type="curve" smooth="yes"/>
      <point x="369" y="406"/>
      <point x="443" y="326"/>
      <point x="443" y="222" type="curve" smooth="yes"/>
      <point x="443" y="121"/>
      <point x="368" y="48"/>
      <point x="260" y="48" type="curve" smooth="yes"/>
      <point x="152" y="48"/>
      <point x="77" y="122"/>
      <point x="77" y="224" type="curve" smooth="yes"/>
      <point x="77" y="326"/>
      <point x="150" y="406"/>
    </contour>
    <contour>
      <point x="260" y="366" type="curve" smooth="yes"/>
      <point x="174" y="366"/>
      <point x="127" y="298"/>
      <point x="127" y="224" type="curve" smooth="yes"/>
      <point x="127" y="150"/>
      <point x="176" y="88"/>
      <point x="260" y="88" type="curve" smooth="yes"/>
      <point x="344" y="88"/>
      <point x="393" y="149"/>
      <point x="393" y="222" type="curve" smooth="yes"/>
      <point x="393" y="298"/>
      <point x="345" y="366"/>
    </contour>
    <contour>
      <point x="428" y="10" type="curve" smooth="yes"/>
      <point x="357" y="88" type="line" smooth="yes"/>
      <point x="350" y="96"/>
      <point x="352" y="110"/>
      <point x="360" y="117" type="curve" smooth="yes"/>
      <point x="368" y="124"/>
      <point x="381" y="124"/>
      <point x="389" y="116" type="curve" smooth="yes"/>
      <point x="460" y="38" type="line" smooth="yes"/>
      <point x="467" y="30"/>
      <point x="465" y="16"/>
      <point x="457" y="9" type="curve" smooth="yes"/>
      <point x="449" y="2"/>
      <point x="436" y="2"/>
    </contour>
    <contour>
      <point x="131" y="335" type="curve" smooth="yes"/>
      <point x="66" y="406" type="line" smooth="yes"/>
      <point x="59" y="414"/>
      <point x="61" y="427"/>
      <point x="68" y="435" type="curve" smooth="yes"/>
      <point x="76" y="442"/>
      <point x="90" y="442"/>
      <point x="98" y="434" type="curve" smooth="yes"/>
      <point x="163" y="363" type="line" smooth="yes"/>
      <point x="170" y="355"/>
      <point x="168" y="342"/>
      <point x="161" y="334" type="curve" smooth="yes"/>
      <point x="153" y="327"/>
      <point x="139" y="327"/>
    </contour>
    <contour>
      <point x="357" y="364" type="curve" smooth="yes"/>
      <point x="422" y="436" type="line" smooth="yes"/>
      <point x="430" y="444"/>
      <point x="443" y="444"/>
      <point x="451" y="437" type="curve" smooth="yes"/>
      <point x="459" y="430"/>
      <point x="461" y="416"/>
      <point x="454" y="408" type="curve" smooth="yes"/>
      <point x="389" y="336" type="line" smooth="yes"/>
      <point x="381" y="328"/>
      <point x="368" y="328"/>
      <point x="360" y="335" type="curve" smooth="yes"/>
      <point x="352" y="342"/>
      <point x="350" y="356"/>
    </contour>
    <contour>
      <point x="61" y="38" type="curve" smooth="yes"/>
      <point x="129" y="113" type="line" smooth="yes"/>
      <point x="137" y="121"/>
      <point x="150" y="121"/>
      <point x="158" y="114" type="curve" smooth="yes"/>
      <point x="166" y="107"/>
      <point x="168" y="93"/>
      <point x="161" y="85" type="curve" smooth="yes"/>
      <point x="93" y="10" type="line" smooth="yes"/>
      <point x="85" y="2"/>
      <point x="72" y="2"/>
      <point x="64" y="9" type="curve" smooth="yes"/>
      <point x="56" y="16"/>
      <point x="54" y="30"/>
    </contour>
  </outline>
</glyph>
<glyph name="brokenbar" format="1">
  <advance width="300"/>
  <unicode hex="00A6"/>
  <outline>
    <contour>
      <point x="175" y="149" type="curve" smooth="yes"/>
      <point x="175" y="-78" type="line" smooth="yes"/>
      <point x="175" y="-89"/>
      <point x="161" y="-98"/>
      <point x="150" y="-98" type="curve" smooth="yes"/>
      <point x="139" y="-98"/>
      <point x="125" y="-89"/>
      <point x="125" y="-78" type="curve" smooth="yes"/>
      <point x="125" y="149" type="line" smooth="yes"/>
      <point x="125" y="160"/>
      <point x="139" y="169"/>
      <point x="150" y="169" type="curve" smooth="yes"/>
      <point x="161" y="169"/>
      <point x="175" y="160"/>
    </contour>
    <contour>
      <point x="175" y="535" type="curve" smooth="yes"/>
      <point x="175" y="308" type="line" smooth="yes"/>
      <point x="175" y="297"/>
      <point x="161" y="288"/>
      <point x="150" y="288" type="curve" smooth="yes"/>
      <point x="139" y="288"/>
      <point x="125" y="297"/>
      <point x="125" y="308" type="curve" smooth="yes"/>
      <point x="125" y="535" type="line" smooth="yes"/>
      <point x="125" y="546"/>
      <point x="139" y="555"/>
      <point x="150" y="555" type="curve" smooth="yes"/>
      <point x="161" y="555"/>
      <point x="175" y="546"/>
    </contour>
  </outline>
</glyph>
<glyph name="section" format="1">
  <advance width="525"/>
  <unicode hex="00A7"/>
  <outline>
    <contour>
      <point x="387" y="471" type="curve" smooth="yes"/>
      <point x="342" y="485"/>
      <point x="309" y="494"/>
      <point x="243" y="494" type="curve" smooth="yes"/>
      <point x="178" y="494"/>
      <point x="132" y="464"/>
      <point x="132" y="428" type="curve" smooth="yes"/>
      <point x="132" y="393"/>
      <point x="157" y="356"/>
      <point x="267" y="340" type="curve" smooth="yes"/>
      <point x="410" y="312"/>
      <point x="452" y="261"/>
      <point x="452" y="201" type="curve" smooth="yes"/>
      <point x="452" y="140"/>
      <point x="401" y="85"/>
      <point x="263" y="85" type="curve" smooth="yes"/>
      <point x="252" y="85"/>
      <point x="243" y="94"/>
      <point x="243" y="105" type="curve" smooth="yes"/>
      <point x="243" y="116"/>
      <point x="252" y="125"/>
      <point x="263" y="125" type="curve" smooth="yes"/>
      <point x="353" y="125"/>
      <point x="402" y="156"/>
      <point x="402" y="201" type="curve" smooth="yes"/>
      <point x="402" y="247"/>
      <point x="362" y="280"/>
      <point x="261" y="300" type="curve" smooth="yes"/>
      <point x="103" y="324"/>
      <point x="82" y="381"/>
      <point x="82" y="428" type="curve" smooth="yes"/>
      <point x="82" y="480"/>
      <point x="138" y="534"/>
      <point x="243" y="534" type="curve" smooth="yes"/>
      <point x="315" y="534"/>
      <point x="350" y="525"/>
      <point x="399" y="509" type="curve" smooth="yes"/>
      <point x="409" y="506"/>
      <point x="415" y="494"/>
      <point x="412" y="484" type="curve" smooth="yes"/>
      <point x="409" y="474"/>
      <point x="397" y="468"/>
    </contour>
    <contour>
      <point x="233" y="301" type="curve" smooth="yes"/>
      <point x="165" y="301"/>
      <point x="122" y="271"/>
      <point x="122" y="221" type="curve" smooth="yes"/>
      <point x="122" y="183"/>
      <point x="146" y="144"/>
      <point x="257" y="125" type="curve" smooth="yes"/>
      <point x="403" y="100"/>
      <point x="442" y="62"/>
      <point x="442" y="1" type="curve" smooth="yes"/>
      <point x="442" y="-60"/>
      <point x="390" y="-120"/>
      <point x="253" y="-120" type="curve" smooth="yes"/>
      <point x="190" y="-120"/>
      <point x="130" y="-108"/>
      <point x="76" y="-83" type="curve" smooth="yes"/>
      <point x="66" y="-79"/>
      <point x="61" y="-66"/>
      <point x="66" y="-57" type="curve" smooth="yes"/>
      <point x="70" y="-47"/>
      <point x="83" y="-42"/>
      <point x="92" y="-47" type="curve" smooth="yes"/>
      <point x="142" y="-70"/>
      <point x="196" y="-80"/>
      <point x="253" y="-80" type="curve" smooth="yes"/>
      <point x="344" y="-80"/>
      <point x="392" y="-44"/>
      <point x="392" y="1" type="curve" smooth="yes"/>
      <point x="392" y="48"/>
      <point x="349" y="68"/>
      <point x="251" y="85" type="curve" smooth="yes"/>
      <point x="94" y="112"/>
      <point x="72" y="171"/>
      <point x="72" y="221" type="curve" smooth="yes"/>
      <point x="72" y="293"/>
      <point x="131" y="341"/>
      <point x="233" y="341" type="curve" smooth="yes"/>
      <point x="244" y="341"/>
      <point x="253" y="332"/>
      <point x="253" y="321" type="curve" smooth="yes"/>
      <point x="253" y="310"/>
      <point x="244" y="301"/>
    </contour>
  </outline>
</glyph>
<glyph name="copyright" format="1">
  <advance width="653"/>
  <unicode hex="00A9"/>
  <outline>
    <contour>
      <point x="329" y="537" type="curve" smooth="yes"/>
      <point x="479" y="537"/>
      <point x="604" y="428"/>
      <point x="604" y="265" type="curve" smooth="yes"/>
      <point x="604" y="110"/>
      <point x="500" y="-6"/>
      <point x="329" y="-6" type="curve" smooth="yes"/>
      <point x="167" y="-6"/>
      <point x="49" y="110"/>
      <point x="49" y="262" type="curve"/>
      <point x="49" y="428"/>
      <point x="164" y="537"/>
    </contour>
    <contour>
      <point x="396" y="362" type="curve" smooth="yes"/>
      <point x="381" y="370"/>
      <point x="359" y="376"/>
      <point x="335" y="376" type="curve" smooth="yes"/>
      <point x="277" y="376"/>
      <point x="231" y="327"/>
      <point x="231" y="264" type="curve" smooth="yes"/>
      <point x="231" y="205"/>
      <point x="268" y="155"/>
      <point x="338" y="155" type="curve" smooth="yes"/>
      <point x="361" y="155"/>
      <point x="382" y="160"/>
      <point x="399" y="169" type="curve" smooth="yes"/>
      <point x="408" y="174"/>
      <point x="421" y="170"/>
      <point x="426" y="160" type="curve" smooth="yes"/>
      <point x="431" y="151"/>
      <point x="427" y="138"/>
      <point x="417" y="133" type="curve" smooth="yes"/>
      <point x="396" y="122"/>
      <point x="369" y="115"/>
      <point x="338" y="115" type="curve" smooth="yes"/>
      <point x="242" y="115"/>
      <point x="181" y="177"/>
      <point x="181" y="264" type="curve" smooth="yes"/>
      <point x="181" y="357"/>
      <point x="257" y="416"/>
      <point x="335" y="416" type="curve" smooth="yes"/>
      <point x="367" y="416"/>
      <point x="395" y="408"/>
      <point x="414" y="398" type="curve" smooth="yes"/>
      <point x="424" y="393"/>
      <point x="428" y="380"/>
      <point x="423" y="371" type="curve" smooth="yes"/>
      <point x="418" y="361"/>
      <point x="405" y="357"/>
    </contour>
    <contour>
      <point x="329" y="497" type="curve" smooth="yes"/>
      <point x="188" y="497"/>
      <point x="99" y="398"/>
      <point x="99" y="262" type="curve" smooth="yes"/>
      <point x="99" y="138"/>
      <point x="191" y="34"/>
      <point x="329" y="34" type="curve" smooth="yes"/>
      <point x="474" y="34"/>
      <point x="554" y="138"/>
      <point x="554" y="265" type="curve" smooth="yes"/>
      <point x="554" y="398"/>
      <point x="457" y="497"/>
    </contour>
  </outline>
</glyph>
<glyph name="guillemotleft" format="1">
  <advance width="438"/>
  <unicode hex="00AB"/>
  <outline>
    <contour>
      <point x="258" y="202" type="curve" smooth="yes"/>
      <point x="369" y="52" type="line" smooth="yes"/>
      <point x="376" y="43"/>
      <point x="373" y="29"/>
      <point x="364" y="23" type="curve" smooth="yes"/>
      <point x="355" y="16"/>
      <point x="341" y="17"/>
      <point x="335" y="26" type="curve" smooth="yes"/>
      <point x="224" y="176" type="line" smooth="yes"/>
      <point x="217" y="185"/>
      <point x="220" y="199"/>
      <point x="229" y="205" type="curve" smooth="yes"/>
      <point x="238" y="212"/>
      <point x="252" y="211"/>
    </contour>
    <contour>
      <point x="369" y="331" type="curve" smooth="yes"/>
      <point x="258" y="181" type="line" smooth="yes"/>
      <point x="252" y="172"/>
      <point x="238" y="171"/>
      <point x="229" y="178" type="curve" smooth="yes"/>
      <point x="220" y="184"/>
      <point x="217" y="198"/>
      <point x="224" y="207" type="curve" smooth="yes"/>
      <point x="335" y="357" type="line" smooth="yes"/>
      <point x="341" y="366"/>
      <point x="355" y="367"/>
      <point x="364" y="360" type="curve" smooth="yes"/>
      <point x="373" y="354"/>
      <point x="376" y="340"/>
    </contour>
    <contour>
      <point x="88" y="202" type="curve" smooth="yes"/>
      <point x="199" y="52" type="line" smooth="yes"/>
      <point x="206" y="43"/>
      <point x="203" y="29"/>
      <point x="194" y="23" type="curve" smooth="yes"/>
      <point x="185" y="16"/>
      <point x="171" y="17"/>
      <point x="165" y="26" type="curve" smooth="yes"/>
      <point x="54" y="176" type="line" smooth="yes"/>
      <point x="47" y="185"/>
      <point x="50" y="199"/>
      <point x="59" y="205" type="curve" smooth="yes"/>
      <point x="68" y="212"/>
      <point x="82" y="211"/>
    </contour>
    <contour>
      <point x="199" y="331" type="curve" smooth="yes"/>
      <point x="88" y="181" type="line" smooth="yes"/>
      <point x="82" y="172"/>
      <point x="68" y="171"/>
      <point x="59" y="178" type="curve" smooth="yes"/>
      <point x="50" y="184"/>
      <point x="47" y="198"/>
      <point x="54" y="207" type="curve" smooth="yes"/>
      <point x="165" y="357" type="line" smooth="yes"/>
      <point x="171" y="366"/>
      <point x="185" y="367"/>
      <point x="194" y="360" type="curve" smooth="yes"/>
      <point x="203" y="354"/>
      <point x="206" y="340"/>
    </contour>
  </outline>
</glyph>
<glyph name="logicalnot" format="1">
  <advance width="481"/>
  <unicode hex="00AC"/>
  <outline>
    <contour>
      <point x="109" y="269" type="curve" smooth="yes"/>
      <point x="372" y="269" type="line" smooth="yes"/>
      <point x="383" y="269"/>
      <point x="392" y="260"/>
      <point x="392" y="249" type="curve" smooth="yes"/>
      <point x="392" y="238"/>
      <point x="383" y="229"/>
      <point x="372" y="229" type="curve" smooth="yes"/>
      <point x="109" y="229" type="line" smooth="yes"/>
      <point x="98" y="229"/>
      <point x="89" y="238"/>
      <point x="89" y="249" type="curve" smooth="yes"/>
      <point x="89" y="260"/>
      <point x="98" y="269"/>
    </contour>
    <contour>
      <point x="397" y="243" type="curve" smooth="yes"/>
      <point x="397" y="142" type="line" smooth="yes"/>
      <point x="397" y="131"/>
      <point x="383" y="122"/>
      <point x="372" y="122" type="curve" smooth="yes"/>
      <point x="361" y="122"/>
      <point x="347" y="131"/>
      <point x="347" y="142" type="curve" smooth="yes"/>
      <point x="347" y="243" type="line" smooth="yes"/>
      <point x="347" y="254"/>
      <point x="361" y="263"/>
      <point x="372" y="263" type="curve" smooth="yes"/>
      <point x="383" y="263"/>
      <point x="397" y="254"/>
    </contour>
  </outline>
</glyph>
<glyph name="registered" format="1">
  <advance width="560"/>
  <unicode hex="00AE"/>
  <outline>
    <contour>
      <point x="277" y="579" type="curve" smooth="yes"/>
      <point x="175" y="579"/>
      <point x="110" y="505"/>
      <point x="110" y="406" type="curve" smooth="yes"/>
      <point x="110" y="312"/>
      <point x="175" y="226"/>
      <point x="284" y="226" type="curve" smooth="yes"/>
      <point x="386" y="226"/>
      <point x="456" y="304"/>
      <point x="456" y="403" type="curve" smooth="yes"/>
      <point x="456" y="501"/>
      <point x="386" y="579"/>
    </contour>
    <contour>
      <point x="235" y="397" type="curve" smooth="yes"/>
      <point x="282" y="397" type="line" smooth="yes"/>
      <point x="310" y="397"/>
      <point x="320" y="417"/>
      <point x="320" y="436" type="curve" smooth="yes"/>
      <point x="320" y="457"/>
      <point x="306" y="472"/>
      <point x="282" y="472" type="curve" smooth="yes"/>
      <point x="225" y="472" type="line"/>
      <point x="250" y="492" type="line"/>
      <point x="250" y="316" type="line" smooth="yes"/>
      <point x="250" y="305"/>
      <point x="236" y="296"/>
      <point x="225" y="296" type="curve" smooth="yes"/>
      <point x="214" y="296"/>
      <point x="200" y="305"/>
      <point x="200" y="316" type="curve" smooth="yes"/>
      <point x="200" y="492" type="line" smooth="yes"/>
      <point x="200" y="503"/>
      <point x="211" y="512"/>
      <point x="225" y="512" type="curve" smooth="yes"/>
      <point x="282" y="512" type="line" smooth="yes"/>
      <point x="334" y="512"/>
      <point x="370" y="485"/>
      <point x="370" y="436" type="curve" smooth="yes"/>
      <point x="370" y="391"/>
      <point x="340" y="357"/>
      <point x="282" y="357" type="curve" smooth="yes"/>
      <point x="235" y="357" type="line" smooth="yes"/>
      <point x="224" y="357"/>
      <point x="215" y="366"/>
      <point x="215" y="377" type="curve" smooth="yes"/>
      <point x="215" y="388"/>
      <point x="224" y="397"/>
    </contour>
    <contour>
      <point x="325" y="385" type="curve" smooth="yes"/>
      <point x="372" y="330" type="line" smooth="yes"/>
      <point x="379" y="322"/>
      <point x="377" y="308"/>
      <point x="369" y="301" type="curve" smooth="yes"/>
      <point x="361" y="294"/>
      <point x="347" y="294"/>
      <point x="340" y="302" type="curve" smooth="yes"/>
      <point x="293" y="357" type="line" smooth="yes"/>
      <point x="286" y="365"/>
      <point x="288" y="379"/>
      <point x="296" y="386" type="curve" smooth="yes"/>
      <point x="304" y="393"/>
      <point x="318" y="393"/>
    </contour>
    <contour>
      <point x="277" y="619" type="curve" smooth="yes"/>
      <point x="410" y="619"/>
      <point x="506" y="529"/>
      <point x="506" y="403" type="curve" smooth="yes"/>
      <point x="506" y="276"/>
      <point x="408" y="186"/>
      <point x="284" y="186" type="curve" smooth="yes"/>
      <point x="151" y="186"/>
      <point x="60" y="284"/>
      <point x="60" y="406" type="curve" smooth="yes"/>
      <point x="60" y="535"/>
      <point x="151" y="619"/>
    </contour>
  </outline>
</glyph>
<glyph name="degree" format="1">
  <advance width="440"/>
  <unicode hex="00B0"/>
  <outline>
    <contour>
      <point x="219" y="533" type="curve" smooth="yes"/>
      <point x="314" y="533"/>
      <point x="385" y="466"/>
      <point x="385" y="373" type="curve" smooth="yes"/>
      <point x="385" y="285"/>
      <point x="314" y="219"/>
      <point x="220" y="219" type="curve" smooth="yes"/>
      <point x="125" y="219"/>
      <point x="55" y="286"/>
      <point x="55" y="373" type="curve"/>
      <point x="55" y="463"/>
      <point x="123" y="533"/>
    </contour>
    <contour>
      <point x="219" y="493" type="curve" smooth="yes"/>
      <point x="147" y="493"/>
      <point x="105" y="435"/>
      <point x="105" y="373" type="curve" smooth="yes"/>
      <point x="105" y="312"/>
      <point x="149" y="259"/>
      <point x="220" y="259" type="curve" smooth="yes"/>
      <point x="290" y="259"/>
      <point x="335" y="311"/>
      <point x="335" y="373" type="curve" smooth="yes"/>
      <point x="335" y="438"/>
      <point x="290" y="493"/>
    </contour>
  </outline>
</glyph>
<glyph name="plusminus" format="1">
  <advance width="530"/>
  <unicode hex="00B1"/>
  <outline>
    <contour>
      <point x="96" y="348" type="curve" smooth="yes"/>
      <point x="433" y="348" type="line" smooth="yes"/>
      <point x="444" y="348"/>
      <point x="453" y="339"/>
      <point x="453" y="328" type="curve" smooth="yes"/>
      <point x="453" y="317"/>
      <point x="444" y="308"/>
      <point x="433" y="308" type="curve" smooth="yes"/>
      <point x="96" y="308" type="line" smooth="yes"/>
      <point x="85" y="308"/>
      <point x="76" y="317"/>
      <point x="76" y="328" type="curve" smooth="yes"/>
      <point x="76" y="339"/>
      <point x="85" y="348"/>
    </contour>
    <contour>
      <point x="240" y="209" type="curve" smooth="yes"/>
      <point x="240" y="447" type="line" smooth="yes"/>
      <point x="240" y="458"/>
      <point x="254" y="467"/>
      <point x="265" y="467" type="curve" smooth="yes"/>
      <point x="276" y="467"/>
      <point x="290" y="458"/>
      <point x="290" y="447" type="curve" smooth="yes"/>
      <point x="290" y="209" type="line" smooth="yes"/>
      <point x="290" y="198"/>
      <point x="276" y="189"/>
      <point x="265" y="189" type="curve" smooth="yes"/>
      <point x="254" y="189"/>
      <point x="240" y="198"/>
    </contour>
    <contour>
      <point x="96" y="102" type="curve" smooth="yes"/>
      <point x="433" y="102" type="line" smooth="yes"/>
      <point x="444" y="102"/>
      <point x="453" y="93"/>
      <point x="453" y="82" type="curve" smooth="yes"/>
      <point x="453" y="71"/>
      <point x="444" y="62"/>
      <point x="433" y="62" type="curve" smooth="yes"/>
      <point x="96" y="62" type="line" smooth="yes"/>
      <point x="85" y="62"/>
      <point x="76" y="71"/>
      <point x="76" y="82" type="curve" smooth="yes"/>
      <point x="76" y="93"/>
      <point x="85" y="102"/>
    </contour>
  </outline>
</glyph>
<glyph name="uni00B5" format="1">
  <advance width="498"/>
  <unicode hex="00B5"/>
  <outline>
    <contour>
      <point x="76" y="-117" type="curve" smooth="yes"/>
      <point x="76" y="225" type="line" smooth="yes"/>
      <point x="76" y="236"/>
      <point x="90" y="245"/>
      <point x="101" y="245" type="curve" smooth="yes"/>
      <point x="112" y="245"/>
      <point x="126" y="236"/>
      <point x="126" y="225" type="curve" smooth="yes"/>
      <point x="126" y="-117" type="line" smooth="yes"/>
      <point x="126" y="-128"/>
      <point x="112" y="-137"/>
      <point x="101" y="-137" type="curve" smooth="yes"/>
      <point x="90" y="-137"/>
      <point x="76" y="-128"/>
    </contour>
    <component base="u" xOffset="1"/>
  </outline>
</glyph>
<glyph name="paragraph" format="1">
  <advance width="556"/>
  <unicode hex="00B6"/>
  <outline>
    <contour>
      <point x="408" y="23" type="curve" smooth="yes"/>
      <point x="408" y="508" type="line"/>
      <point x="433" y="488" type="line"/>
      <point x="245" y="488" type="line" smooth="yes"/>
      <point x="157" y="488"/>
      <point x="102" y="431"/>
      <point x="102" y="354" type="curve" smooth="yes"/>
      <point x="102" y="282"/>
      <point x="147" y="219"/>
      <point x="245" y="219" type="curve" smooth="yes"/>
      <point x="301" y="219" type="line" smooth="yes"/>
      <point x="312" y="219"/>
      <point x="321" y="210"/>
      <point x="321" y="199" type="curve" smooth="yes"/>
      <point x="321" y="188"/>
      <point x="312" y="179"/>
      <point x="301" y="179" type="curve" smooth="yes"/>
      <point x="245" y="179" type="line" smooth="yes"/>
      <point x="117" y="179"/>
      <point x="52" y="256"/>
      <point x="52" y="354" type="curve"/>
      <point x="52" y="457"/>
      <point x="131" y="528"/>
      <point x="245" y="528" type="curve" smooth="yes"/>
      <point x="433" y="528" type="line" smooth="yes"/>
      <point x="447" y="528"/>
      <point x="458" y="519"/>
      <point x="458" y="508" type="curve" smooth="yes"/>
      <point x="458" y="23" type="line" smooth="yes"/>
      <point x="458" y="12"/>
      <point x="444" y="3"/>
      <point x="433" y="3" type="curve" smooth="yes"/>
      <point x="422" y="3"/>
      <point x="408" y="12"/>
    </contour>
    <contour>
      <point x="276" y="23" type="curve" smooth="yes"/>
      <point x="276" y="506" type="line" smooth="yes"/>
      <point x="276" y="517"/>
      <point x="290" y="526"/>
      <point x="301" y="526" type="curve" smooth="yes"/>
      <point x="312" y="526"/>
      <point x="326" y="517"/>
      <point x="326" y="506" type="curve" smooth="yes"/>
      <point x="326" y="23" type="line" smooth="yes"/>
      <point x="326" y="12"/>
      <point x="312" y="3"/>
      <point x="301" y="3" type="curve" smooth="yes"/>
      <point x="290" y="3"/>
      <point x="276" y="12"/>
    </contour>
  </outline>
</glyph>
<glyph name="cedilla" format="1">
  <advance width="490"/>
  <unicode hex="00B8"/>
  <outline>
    <contour>
      <point x="308" y="-98" type="curve" smooth="yes"/>
      <point x="282" y="-124"/>
      <point x="231" y="-175"/>
      <point x="208" y="-198" type="curve" smooth="yes"/>
      <point x="200" y="-205"/>
      <point x="186" y="-205"/>
      <point x="179" y="-197" type="curve" smooth="yes"/>
      <point x="171" y="-190"/>
      <point x="171" y="-176"/>
      <point x="178" y="-168" type="curve" smooth="yes"/>
      <point x="201" y="-145"/>
      <point x="252" y="-94"/>
      <point x="280" y="-68" type="curve" smooth="yes"/>
      <point x="287" y="-61"/>
      <point x="301" y="-61"/>
      <point x="308" y="-69" type="curve" smooth="yes"/>
      <point x="316" y="-77"/>
      <point x="316" y="-90"/>
    </contour>
  </outline>
</glyph>
<glyph name="ordmasculine" format="1">
  <advance width="438"/>
  <unicode hex="00BA"/>
  <outline>
    <contour>
      <point x="219" y="527" type="curve" smooth="yes"/>
      <point x="300" y="527"/>
      <point x="357" y="468"/>
      <point x="357" y="391" type="curve" smooth="yes"/>
      <point x="357" y="313"/>
      <point x="300" y="259"/>
      <point x="219" y="259" type="curve" smooth="yes"/>
      <point x="138" y="259"/>
      <point x="80" y="313"/>
      <point x="80" y="391" type="curve" smooth="yes"/>
      <point x="80" y="468"/>
      <point x="136" y="527"/>
    </contour>
    <contour>
      <point x="219" y="487" type="curve" smooth="yes"/>
      <point x="160" y="487"/>
      <point x="130" y="440"/>
      <point x="130" y="391" type="curve" smooth="yes"/>
      <point x="130" y="341"/>
      <point x="162" y="299"/>
      <point x="219" y="299" type="curve" smooth="yes"/>
      <point x="276" y="299"/>
      <point x="307" y="341"/>
      <point x="307" y="391" type="curve" smooth="yes"/>
      <point x="307" y="440"/>
      <point x="276" y="487"/>
    </contour>
    <contour>
      <point x="98" y="184" type="curve" smooth="yes"/>
      <point x="347" y="184" type="line" smooth="yes"/>
      <point x="358" y="184"/>
      <point x="367" y="175"/>
      <point x="367" y="164" type="curve" smooth="yes"/>
      <point x="367" y="153"/>
      <point x="358" y="144"/>
      <point x="347" y="144" type="curve" smooth="yes"/>
      <point x="98" y="144" type="line" smooth="yes"/>
      <point x="87" y="144"/>
      <point x="78" y="153"/>
      <point x="78" y="164" type="curve" smooth="yes"/>
      <point x="78" y="175"/>
      <point x="87" y="184"/>
    </contour>
  </outline>
</glyph>
<glyph name="AE" format="1">
  <advance width="755"/>
  <unicode hex="00C6"/>
  <outline>
    <contour>
      <point x="373" y="496" type="curve" smooth="yes"/>
      <point x="270" y="327"/>
      <point x="144" y="137"/>
      <point x="61" y="11" type="curve" smooth="yes"/>
      <point x="56" y="2"/>
      <point x="41" y="0"/>
      <point x="32" y="6" type="curve" smooth="yes"/>
      <point x="23" y="12"/>
      <point x="19" y="26"/>
      <point x="25" y="35" type="curve" smooth="yes"/>
      <point x="106" y="161"/>
      <point x="232" y="351"/>
      <point x="335" y="520" type="curve" smooth="yes"/>
      <point x="341" y="529"/>
      <point x="355" y="531"/>
      <point x="364" y="525" type="curve" smooth="yes"/>
      <point x="374" y="519"/>
      <point x="379" y="506"/>
    </contour>
    <contour>
      <point x="143" y="188" type="curve" smooth="yes"/>
      <point x="392" y="188" type="line" smooth="yes"/>
      <point x="403" y="188"/>
      <point x="412" y="179"/>
      <point x="412" y="168" type="curve" smooth="yes"/>
      <point x="412" y="157"/>
      <point x="403" y="148"/>
      <point x="392" y="148" type="curve" smooth="yes"/>
      <point x="143" y="148" type="line" smooth="yes"/>
      <point x="132" y="148"/>
      <point x="123" y="157"/>
      <point x="123" y="168" type="curve" smooth="yes"/>
      <point x="123" y="179"/>
      <point x="132" y="188"/>
    </contour>
    <contour>
      <point x="410" y="488" type="curve" smooth="yes"/>
      <point x="359" y="488" type="line" smooth="yes"/>
      <point x="348" y="488"/>
      <point x="339" y="497"/>
      <point x="339" y="508" type="curve" smooth="yes"/>
      <point x="339" y="519"/>
      <point x="348" y="528"/>
      <point x="359" y="528" type="curve" smooth="yes"/>
      <point x="410" y="528" type="line" smooth="yes"/>
      <point x="421" y="528"/>
      <point x="430" y="519"/>
      <point x="430" y="508" type="curve" smooth="yes"/>
      <point x="430" y="497"/>
      <point x="421" y="488"/>
    </contour>
    <component base="E" xOffset="270"/>
  </outline>
</glyph>
<glyph name="Eth" format="1">
  <advance width="627"/>
  <unicode hex="00D0"/>
  <outline>
    <contour>
      <point x="64" y="290" type="curve" smooth="yes"/>
      <point x="310" y="290" type="line" smooth="yes"/>
      <point x="321" y="290"/>
      <point x="330" y="281"/>
      <point x="330" y="270" type="curve" smooth="yes"/>
      <point x="330" y="259"/>
      <point x="321" y="250"/>
      <point x="310" y="250" type="curve" smooth="yes"/>
      <point x="64" y="250" type="line" smooth="yes"/>
      <point x="53" y="250"/>
      <point x="44" y="259"/>
      <point x="44" y="270" type="curve" smooth="yes"/>
      <point x="44" y="281"/>
      <point x="53" y="290"/>
    </contour>
    <component base="D" xOffset="15"/>
  </outline>
</glyph>
<glyph name="Thorn" format="1">
  <advance width="505"/>
  <unicode hex="00DE"/>
  <outline>
    <contour>
      <point x="148" y="508" type="curve" smooth="yes"/>
      <point x="148" y="23" type="line" smooth="yes"/>
      <point x="148" y="12"/>
      <point x="134" y="3"/>
      <point x="123" y="3" type="curve" smooth="yes"/>
      <point x="112" y="3"/>
      <point x="98" y="12"/>
      <point x="98" y="23" type="curve" smooth="yes"/>
      <point x="98" y="508" type="line" smooth="yes"/>
      <point x="98" y="519"/>
      <point x="112" y="528"/>
      <point x="123" y="528" type="curve" smooth="yes"/>
      <point x="134" y="528"/>
      <point x="148" y="519"/>
    </contour>
    <contour>
      <point x="149" y="144" type="curve" smooth="yes"/>
      <point x="260" y="144" type="line" smooth="yes"/>
      <point x="357" y="144"/>
      <point x="403" y="201"/>
      <point x="403" y="267" type="curve" smooth="yes"/>
      <point x="403" y="340"/>
      <point x="347" y="394"/>
      <point x="260" y="394" type="curve" smooth="yes"/>
      <point x="134" y="394" type="line" smooth="yes"/>
      <point x="123" y="394"/>
      <point x="114" y="403"/>
      <point x="114" y="414" type="curve" smooth="yes"/>
      <point x="114" y="425"/>
      <point x="123" y="434"/>
      <point x="134" y="434" type="curve" smooth="yes"/>
      <point x="260" y="434" type="line" smooth="yes"/>
      <point x="375" y="434"/>
      <point x="453" y="366"/>
      <point x="453" y="267" type="curve" smooth="yes"/>
      <point x="453" y="177"/>
      <point x="389" y="104"/>
      <point x="260" y="104" type="curve" smooth="yes"/>
      <point x="149" y="104" type="line" smooth="yes"/>
      <point x="138" y="104"/>
      <point x="129" y="113"/>
      <point x="129" y="124" type="curve" smooth="yes"/>
      <point x="129" y="135"/>
      <point x="138" y="144"/>
    </contour>
  </outline>
</glyph>
<glyph name="eth" format="1">
  <advance width="484"/>
  <unicode hex="00F0"/>
  <outline>
    <contour>
      <point x="378" y="253" type="curve" smooth="yes"/>
      <point x="351" y="278"/>
      <point x="292" y="307"/>
      <point x="232" y="307" type="curve" smooth="yes"/>
      <point x="152" y="307"/>
      <point x="96" y="250"/>
      <point x="96" y="170" type="curve" smooth="yes"/>
      <point x="96" y="101"/>
      <point x="144" y="39"/>
      <point x="231" y="39" type="curve" smooth="yes"/>
      <point x="327" y="39"/>
      <point x="378" y="107"/>
      <point x="378" y="212" type="curve" smooth="yes"/>
      <point x="378" y="309"/>
      <point x="336" y="406"/>
      <point x="196" y="523" type="curve" smooth="yes"/>
      <point x="188" y="530"/>
      <point x="187" y="544"/>
      <point x="194" y="552" type="curve" smooth="yes"/>
      <point x="201" y="560"/>
      <point x="214" y="562"/>
      <point x="222" y="555" type="curve" smooth="yes"/>
      <point x="376" y="426"/>
      <point x="428" y="319"/>
      <point x="428" y="212" type="curve" smooth="yes"/>
      <point x="428" y="71"/>
      <point x="349" y="-1"/>
      <point x="231" y="-1" type="curve" smooth="yes"/>
      <point x="118" y="-1"/>
      <point x="46" y="75"/>
      <point x="46" y="170" type="curve"/>
      <point x="46" y="280"/>
      <point x="128" y="347"/>
      <point x="232" y="347" type="curve" smooth="yes"/>
      <point x="304" y="347"/>
      <point x="373" y="314"/>
      <point x="406" y="283" type="curve" smooth="yes"/>
      <point x="414" y="276"/>
      <point x="414" y="262"/>
      <point x="407" y="254" type="curve" smooth="yes"/>
      <point x="399" y="246"/>
      <point x="386" y="245"/>
    </contour>
    <component base="ethslash"/>
  </outline>
</glyph>
<glyph name="divide" format="1">
  <advance width="530"/>
  <unicode hex="00F7"/>
  <outline>
    <contour>
      <point x="267" y="159" type="curve" smooth="yes"/>
      <point x="289" y="159"/>
      <point x="309" y="145"/>
      <point x="309" y="115" type="curve" smooth="yes"/>
      <point x="309" y="79"/>
      <point x="290" y="71"/>
      <point x="268" y="71" type="curve" smooth="yes"/>
      <point x="248" y="71"/>
      <point x="225" y="82"/>
      <point x="225" y="115" type="curve" smooth="yes"/>
      <point x="225" y="145"/>
      <point x="243" y="159"/>
    </contour>
    <contour>
      <point x="267" y="460" type="curve" smooth="yes"/>
      <point x="289" y="460"/>
      <point x="309" y="446"/>
      <point x="309" y="416" type="curve" smooth="yes"/>
      <point x="309" y="380"/>
      <point x="290" y="372"/>
      <point x="268" y="372" type="curve" smooth="yes"/>
      <point x="248" y="372"/>
      <point x="225" y="383"/>
      <point x="225" y="416" type="curve" smooth="yes"/>
      <point x="225" y="446"/>
      <point x="243" y="460"/>
    </contour>
    <contour>
      <point x="96" y="287" type="curve" smooth="yes"/>
      <point x="433" y="287" type="line" smooth="yes"/>
      <point x="444" y="287"/>
      <point x="453" y="278"/>
      <point x="453" y="267" type="curve" smooth="yes"/>
      <point x="453" y="256"/>
      <point x="444" y="247"/>
      <point x="433" y="247" type="curve" smooth="yes"/>
      <point x="96" y="247" type="line" smooth="yes"/>
      <point x="85" y="247"/>
      <point x="76" y="256"/>
      <point x="76" y="267" type="curve" smooth="yes"/>
      <point x="76" y="278"/>
      <point x="85" y="287"/>
    </contour>
  </outline>
</glyph>
<glyph name="thorn" format="1">
  <advance width="503"/>
  <unicode hex="00FE"/>
  <outline>
    <contour>
      <point x="85" y="-168" type="curve" smooth="yes"/>
      <point x="85" y="533" type="line" smooth="yes"/>
      <point x="85" y="544"/>
      <point x="99" y="553"/>
      <point x="110" y="553" type="curve" smooth="yes"/>
      <point x="121" y="553"/>
      <point x="135" y="544"/>
      <point x="135" y="533" type="curve" smooth="yes"/>
      <point x="135" y="-168" type="line" smooth="yes"/>
      <point x="135" y="-179"/>
      <point x="121" y="-188"/>
      <point x="110" y="-188" type="curve" smooth="yes"/>
      <point x="99" y="-188"/>
      <point x="85" y="-179"/>
    </contour>
    <contour>
      <point x="123" y="103" type="curve" smooth="yes"/>
      <point x="165" y="68"/>
      <point x="215" y="43"/>
      <point x="265" y="43" type="curve" smooth="yes"/>
      <point x="352" y="43"/>
      <point x="405" y="112"/>
      <point x="405" y="194" type="curve" smooth="yes"/>
      <point x="405" y="287"/>
      <point x="349" y="345"/>
      <point x="277" y="345" type="curve" smooth="yes"/>
      <point x="218" y="345"/>
      <point x="169" y="303"/>
      <point x="129" y="245" type="curve" smooth="yes"/>
      <point x="123" y="237"/>
      <point x="108" y="235"/>
      <point x="99" y="242" type="curve" smooth="yes"/>
      <point x="91" y="248"/>
      <point x="87" y="262"/>
      <point x="93" y="271" type="curve" smooth="yes"/>
      <point x="143" y="341"/>
      <point x="206" y="385"/>
      <point x="277" y="385" type="curve" smooth="yes"/>
      <point x="367" y="385"/>
      <point x="455" y="323"/>
      <point x="455" y="194" type="curve" smooth="yes"/>
      <point x="455" y="82"/>
      <point x="374" y="3"/>
      <point x="265" y="3" type="curve" smooth="yes"/>
      <point x="207" y="3"/>
      <point x="147" y="30"/>
      <point x="97" y="71" type="curve" smooth="yes"/>
      <point x="89" y="78"/>
      <point x="88" y="91"/>
      <point x="95" y="100" type="curve" smooth="yes"/>
      <point x="101" y="108"/>
      <point x="115" y="110"/>
    </contour>
  </outline>
</glyph>
<glyph name="dotlessi" format="1">
  <advance width="207"/>
  <unicode hex="0131"/>
  <outline>
    <contour>
      <point x="78" y="23" type="curve" smooth="yes"/>
      <point x="78" y="365" type="line" smooth="yes"/>
      <point x="78" y="376"/>
      <point x="92" y="385"/>
      <point x="103" y="385" type="curve" smooth="yes"/>
      <point x="114" y="385"/>
      <point x="128" y="376"/>
      <point x="128" y="365" type="curve" smooth="yes"/>
      <point x="128" y="23" type="line" smooth="yes"/>
      <point x="128" y="12"/>
      <point x="114" y="3"/>
      <point x="103" y="3" type="curve" smooth="yes"/>
      <point x="92" y="3"/>
      <point x="78" y="12"/>
    </contour>
    <contour>
      <point x="102" y="386" type="move" name="top"/>
    </contour>
    <contour>
      <point x="104" y="3" type="move" name="bottom"/>
    </contour>
  </outline>
</glyph>
<glyph name="lcaron" format="1">
  <advance width="351"/>
  <unicode hex="013E"/>
  <outline>
    <contour>
      <point x="330" y="557" type="curve" smooth="yes"/>
      <point x="310" y="418" type="line" smooth="yes"/>
      <point x="309" y="408"/>
      <point x="294" y="401"/>
      <point x="283" y="402" type="curve" smooth="yes"/>
      <point x="272" y="404"/>
      <point x="260" y="415"/>
      <point x="262" y="426" type="curve" smooth="yes"/>
      <point x="282" y="565" type="line" smooth="yes"/>
      <point x="283" y="575"/>
      <point x="298" y="582"/>
      <point x="309" y="581" type="curve" smooth="yes"/>
      <point x="320" y="579"/>
      <point x="332" y="568"/>
    </contour>
    <component base="l"/>
  </outline>
</glyph>
<glyph name="Lslash" format="1">
  <advance width="474"/>
  <unicode hex="0141"/>
  <outline>
    <contour>
      <point x="288" y="328" type="curve" smooth="yes"/>
      <point x="73" y="186" type="line" smooth="yes"/>
      <point x="64" y="180"/>
      <point x="51" y="183"/>
      <point x="45" y="192" type="curve" smooth="yes"/>
      <point x="39" y="201"/>
      <point x="42" y="214"/>
      <point x="51" y="220" type="curve" smooth="yes"/>
      <point x="266" y="362" type="line" smooth="yes"/>
      <point x="275" y="368"/>
      <point x="288" y="365"/>
      <point x="294" y="356" type="curve" smooth="yes"/>
      <point x="300" y="347"/>
      <point x="297" y="334"/>
    </contour>
    <component base="L" xOffset="15"/>
  </outline>
</glyph>
<glyph name="lslash" format="1">
  <advance width="244"/>
  <unicode hex="0142"/>
  <outline>
    <contour>
      <point x="213" y="337" type="curve" smooth="yes"/>
      <point x="57" y="225" type="line" smooth="yes"/>
      <point x="48" y="219"/>
      <point x="35" y="222"/>
      <point x="29" y="230" type="curve" smooth="yes"/>
      <point x="22" y="239"/>
      <point x="24" y="252"/>
      <point x="33" y="259" type="curve" smooth="yes"/>
      <point x="189" y="371" type="line" smooth="yes"/>
      <point x="198" y="377"/>
      <point x="211" y="374"/>
      <point x="217" y="366" type="curve" smooth="yes"/>
      <point x="224" y="357"/>
      <point x="222" y="344"/>
    </contour>
    <component base="l" xOffset="6"/>
  </outline>
</glyph>
<glyph name="OE" format="1">
  <advance width="811"/>
  <unicode hex="0152"/>
  <outline>
    <contour>
      <point x="455" y="488" type="curve" smooth="yes"/>
      <point x="322" y="488" type="line" smooth="yes"/>
      <point x="193" y="488"/>
      <point x="111" y="393"/>
      <point x="111" y="263" type="curve" smooth="yes"/>
      <point x="111" y="143"/>
      <point x="195" y="43"/>
      <point x="322" y="43" type="curve" smooth="yes"/>
      <point x="484" y="43" type="line" smooth="yes"/>
      <point x="495" y="43"/>
      <point x="504" y="34"/>
      <point x="504" y="23" type="curve" smooth="yes"/>
      <point x="504" y="12"/>
      <point x="495" y="3"/>
      <point x="484" y="3" type="curve" smooth="yes"/>
      <point x="322" y="3" type="line" smooth="yes"/>
      <point x="171" y="3"/>
      <point x="61" y="115"/>
      <point x="61" y="263" type="curve"/>
      <point x="61" y="423"/>
      <point x="169" y="528"/>
      <point x="322" y="528" type="curve" smooth="yes"/>
      <point x="455" y="528" type="line" smooth="yes"/>
      <point x="466" y="528"/>
      <point x="475" y="519"/>
      <point x="475" y="508" type="curve" smooth="yes"/>
      <point x="475" y="497"/>
      <point x="466" y="488"/>
    </contour>
    <component base="E" xOffset="324"/>
  </outline>
</glyph>
<glyph name="florin" format="1">
  <advance width="332"/>
  <unicode hex="0192"/>
  <outline>
    <contour>
      <point x="314" y="540" type="curve" smooth="yes"/>
      <point x="234" y="535"/>
      <point x="208" y="492"/>
      <point x="202" y="435" type="curve" smooth="yes"/>
      <point x="147" y="-134" type="line" smooth="yes"/>
      <point x="146" y="-145"/>
      <point x="131" y="-153"/>
      <point x="120" y="-152" type="curve" smooth="yes"/>
      <point x="109" y="-151"/>
      <point x="96" y="-140"/>
      <point x="97" y="-130" type="curve" smooth="yes"/>
      <point x="152" y="441" type="line" smooth="yes"/>
      <point x="160" y="520"/>
      <point x="204" y="573"/>
      <point x="312" y="580" type="curve" smooth="yes"/>
      <point x="323" y="581"/>
      <point x="332" y="572"/>
      <point x="333" y="561" type="curve" smooth="yes"/>
      <point x="334" y="550"/>
      <point x="325" y="541"/>
    </contour>
    <contour>
      <point x="69" y="385" type="curve" smooth="yes"/>
      <point x="295" y="385" type="line" smooth="yes"/>
      <point x="306" y="385"/>
      <point x="315" y="376"/>
      <point x="315" y="365" type="curve" smooth="yes"/>
      <point x="315" y="354"/>
      <point x="306" y="345"/>
      <point x="295" y="345" type="curve" smooth="yes"/>
      <point x="69" y="345" type="line" smooth="yes"/>
      <point x="58" y="345"/>
      <point x="49" y="354"/>
      <point x="49" y="365" type="curve" smooth="yes"/>
      <point x="49" y="376"/>
      <point x="58" y="385"/>
    </contour>
  </outline>
</glyph>
<glyph name="dotaccent" format="1">
  <advance width="490"/>
  <unicode hex="02D9"/>
  <outline>
    <contour>
      <point x="236" y="592" type="curve" smooth="yes"/>
      <point x="255" y="592"/>
      <point x="278" y="578"/>
      <point x="278" y="546" type="curve" smooth="yes"/>
      <point x="278" y="514"/>
      <point x="256" y="502"/>
      <point x="236" y="502" type="curve" smooth="yes"/>
      <point x="214" y="502"/>
      <point x="192" y="516"/>
      <point x="192" y="546" type="curve" smooth="yes"/>
      <point x="192" y="576"/>
      <point x="215" y="592"/>
    </contour>
  </outline>
</glyph>
<glyph name="tilde" format="1">
  <advance width="490"/>
  <unicode hex="02DC"/>
  <outline>
    <contour>
      <point x="117" y="532" type="curve" smooth="yes"/>
      <point x="142" y="569"/>
      <point x="170" y="588"/>
      <point x="195" y="588" type="curve" smooth="yes"/>
      <point x="217" y="588"/>
      <point x="232" y="578"/>
      <point x="259" y="557" type="curve" smooth="yes"/>
      <point x="275" y="546"/>
      <point x="286" y="536"/>
      <point x="299" y="536" type="curve" smooth="yes"/>
      <point x="315" y="536"/>
      <point x="324" y="556"/>
      <point x="338" y="576" type="curve" smooth="yes"/>
      <point x="344" y="585"/>
      <point x="358" y="587"/>
      <point x="367" y="581" type="curve" smooth="yes"/>
      <point x="376" y="575"/>
      <point x="380" y="561"/>
      <point x="374" y="552" type="curve" smooth="yes"/>
      <point x="348" y="512"/>
      <point x="325" y="496"/>
      <point x="299" y="496" type="curve" smooth="yes"/>
      <point x="278" y="496"/>
      <point x="259" y="506"/>
      <point x="235" y="525" type="curve" smooth="yes"/>
      <point x="218" y="538"/>
      <point x="209" y="548"/>
      <point x="195" y="548" type="curve" smooth="yes"/>
      <point x="180" y="548"/>
      <point x="166" y="527"/>
      <point x="153" y="508" type="curve" smooth="yes"/>
      <point x="147" y="499"/>
      <point x="133" y="497"/>
      <point x="124" y="503" type="curve" smooth="yes"/>
      <point x="115" y="510"/>
      <point x="111" y="523"/>
    </contour>
  </outline>
</glyph>
<glyph name="hungarumlaut" format="1">
  <advance width="490"/>
  <unicode hex="02DD"/>
  <outline>
    <contour>
      <point x="204" y="578" type="curve" smooth="yes"/>
      <point x="183" y="545"/>
      <point x="169" y="515"/>
      <point x="158" y="486" type="curve" smooth="yes"/>
      <point x="154" y="476"/>
      <point x="139" y="472"/>
      <point x="129" y="476" type="curve" smooth="yes"/>
      <point x="119" y="480"/>
      <point x="110" y="494"/>
      <point x="114" y="504" type="curve" smooth="yes"/>
      <point x="127" y="535"/>
      <point x="143" y="565"/>
      <point x="166" y="602" type="curve" smooth="yes"/>
      <point x="172" y="611"/>
      <point x="186" y="613"/>
      <point x="196" y="607" type="curve" smooth="yes"/>
      <point x="205" y="601"/>
      <point x="210" y="587"/>
    </contour>
    <contour>
      <point x="369" y="578" type="curve" smooth="yes"/>
      <point x="348" y="545"/>
      <point x="334" y="515"/>
      <point x="323" y="486" type="curve" smooth="yes"/>
      <point x="319" y="476"/>
      <point x="304" y="472"/>
      <point x="294" y="476" type="curve" smooth="yes"/>
      <point x="284" y="480"/>
      <point x="275" y="494"/>
      <point x="279" y="504" type="curve" smooth="yes"/>
      <point x="292" y="535"/>
      <point x="308" y="565"/>
      <point x="331" y="602" type="curve" smooth="yes"/>
      <point x="337" y="611"/>
      <point x="351" y="613"/>
      <point x="361" y="607" type="curve" smooth="yes"/>
      <point x="370" y="601"/>
      <point x="375" y="587"/>
    </contour>
  </outline>
</glyph>
<glyph name="gravecmb" format="1">
  <advance width="0"/>
  <unicode hex="0300"/>
  <outline>
    <component base="grave" xOffset="-284"/>
    <contour>
      <point x="1" y="386" type="move" name="_top"/>
    </contour>
  </outline>
</glyph>
<glyph name="tildecmb" format="1">
  <advance width="0"/>
  <unicode hex="0303"/>
  <outline>
    <component base="tilde" xOffset="-245"/>
    <contour>
      <point x="1" y="386" type="move" name="_top"/>
    </contour>
  </outline>
</glyph>
<glyph name="macroncmb" format="1">
  <advance width="0"/>
  <unicode hex="0304"/>
  <outline>
    <component base="macron" xOffset="-254"/>
    <contour>
      <point x="1" y="386" type="move" name="_top"/>
    </contour>
  </outline>
</glyph>
<glyph name="brevecmb" format="1">
  <advance width="0"/>
  <unicode hex="0306"/>
  <outline>
    <component base="breve" xOffset="-252"/>
    <contour>
      <point x="1" y="386" type="move" name="_top"/>
    </contour>
  </outline>
</glyph>
<glyph name="ringcmb" format="1">
  <advance width="0"/>
  <unicode hex="030A"/>
  <outline>
    <contour>
      <point x="109" y="541" type="curve" smooth="yes"/>
      <point x="109" y="488"/>
      <point x="69" y="443"/>
      <point x="1" y="443" type="curve" smooth="yes"/>
      <point x="-64" y="443"/>
      <point x="-104" y="492"/>
      <point x="-104" y="541" type="curve" smooth="yes"/>
      <point x="-104" y="590"/>
      <point x="-64" y="639"/>
      <point x="1" y="639" type="curve" smooth="yes"/>
      <point x="69" y="639"/>
      <point x="109" y="594"/>
    </contour>
    <contour>
      <point x="63" y="541" type="curve" smooth="yes"/>
      <point x="63" y="570"/>
      <point x="41" y="597"/>
      <point x="1" y="597" type="curve" smooth="yes"/>
      <point x="-38" y="597"/>
      <point x="-58" y="568"/>
      <point x="-58" y="541" type="curve" smooth="yes"/>
      <point x="-58" y="514"/>
      <point x="-38" y="485"/>
      <point x="1" y="485" type="curve" smooth="yes"/>
      <point x="41" y="485"/>
      <point x="63" y="512"/>
    </contour>
    <contour>
      <point x="1" y="386" type="move" name="_top"/>
    </contour>
  </outline>
</glyph>
<glyph name="commaaccent" format="1">
  <advance width="230"/>
  <unicode hex="0326"/>
  <outline>
    <contour>
      <point x="131" y="-81"/>
      <point x="146" y="-84"/>
      <point x="151" y="-93" type="curve" smooth="yes"/>
      <point x="159" y="-107"/>
      <point x="164" y="-124"/>
      <point x="164" y="-141" type="curve" smooth="yes"/>
      <point x="164" y="-187"/>
      <point x="128" y="-227"/>
      <point x="72" y="-253" type="curve" smooth="yes"/>
      <point x="62" y="-258"/>
      <point x="49" y="-253"/>
      <point x="45" y="-243" type="curve" smooth="yes"/>
      <point x="40" y="-234"/>
      <point x="45" y="-221"/>
      <point x="54" y="-217" type="curve" smooth="yes"/>
      <point x="92" y="-199"/>
      <point x="117" y="-171"/>
      <point x="117" y="-141" type="curve" smooth="yes"/>
      <point x="117" y="-132"/>
      <point x="115" y="-123"/>
      <point x="111" y="-115" type="curve" smooth="yes"/>
      <point x="106" y="-105"/>
      <point x="112" y="-92"/>
      <point x="121" y="-86" type="curve" smooth="yes"/>
    </contour>
  </outline>
</glyph>
<glyph name="cedillacmb" format="1">
  <advance width="0"/>
  <unicode hex="0327"/>
  <outline>
    <component base="cedilla" xOffset="-298" yOffset="-40"/>
    <contour>
      <point x="0" y="3" type="move" name="_bottom"/>
    </contour>
  </outline>
</glyph>
<glyph name="ogonekcmb" format="1">
  <advance width="0"/>
  <unicode hex="0328"/>
  <outline>
    <component base="ogonek" xOffset="-292"/>
    <contour>
      <point x="0" y="3" type="move" name="_bottom"/>
    </contour>
  </outline>
</glyph>
<glyph name="emdash" format="1">
  <advance width="763"/>
  <unicode hex="2014"/>
  <outline>
    <contour>
      <point x="109" y="238" type="curve" smooth="yes"/>
      <point x="654" y="238" type="line" smooth="yes"/>
      <point x="665" y="238"/>
      <point x="674" y="229"/>
      <point x="674" y="218" type="curve" smooth="yes"/>
      <point x="674" y="207"/>
      <point x="665" y="198"/>
      <point x="654" y="198" type="curve" smooth="yes"/>
      <point x="109" y="198" type="line" smooth="yes"/>
      <point x="98" y="198"/>
      <point x="89" y="207"/>
      <point x="89" y="218" type="curve" smooth="yes"/>
      <point x="89" y="229"/>
      <point x="98" y="238"/>
    </contour>
  </outline>
</glyph>
<glyph name="quoteleft" format="1">
  <advance width="245"/>
  <unicode hex="2018"/>
  <outline>
    <contour>
      <point x="139" y="379" type="curve" smooth="yes"/>
      <point x="110" y="418"/>
      <point x="90" y="468"/>
      <point x="90" y="519" type="curve" smooth="yes"/>
      <point x="90" y="541"/>
      <point x="94" y="562"/>
      <point x="98" y="576" type="curve" smooth="yes"/>
      <point x="102" y="586"/>
      <point x="117" y="590"/>
      <point x="127" y="587" type="curve" smooth="yes"/>
      <point x="138" y="584"/>
      <point x="147" y="571"/>
      <point x="144" y="560" type="curve" smooth="yes"/>
      <point x="140" y="550"/>
      <point x="140" y="535"/>
      <point x="140" y="519" type="curve" smooth="yes"/>
      <point x="140" y="478"/>
      <point x="150" y="436"/>
      <point x="173" y="405" type="curve" smooth="yes"/>
      <point x="180" y="396"/>
      <point x="177" y="382"/>
      <point x="168" y="376" type="curve" smooth="yes"/>
      <point x="159" y="370"/>
      <point x="145" y="370"/>
    </contour>
  </outline>
</glyph>
<glyph name="quoteright" format="1">
  <advance width="245"/>
  <unicode hex="2019"/>
  <outline>
    <contour>
      <point x="147" y="576" type="curve" smooth="yes"/>
      <point x="151" y="562"/>
      <point x="155" y="541"/>
      <point x="155" y="519" type="curve" smooth="yes"/>
      <point x="155" y="468"/>
      <point x="135" y="418"/>
      <point x="106" y="379" type="curve" smooth="yes"/>
      <point x="100" y="370"/>
      <point x="86" y="370"/>
      <point x="77" y="376" type="curve" smooth="yes"/>
      <point x="68" y="382"/>
      <point x="65" y="396"/>
      <point x="72" y="405" type="curve" smooth="yes"/>
      <point x="95" y="436"/>
      <point x="105" y="478"/>
      <point x="105" y="519" type="curve" smooth="yes"/>
      <point x="105" y="535"/>
      <point x="105" y="550"/>
      <point x="101" y="560" type="curve" smooth="yes"/>
      <point x="98" y="571"/>
      <point x="107" y="584"/>
      <point x="118" y="587" type="curve" smooth="yes"/>
      <point x="128" y="590"/>
      <point x="143" y="586"/>
    </contour>
  </outline>
</glyph>
<glyph name="quotesinglbase" format="1">
  <advance width="245"/>
  <unicode hex="201A"/>
  <outline>
    <contour>
      <point x="147" y="83" type="curve" smooth="yes"/>
      <point x="151" y="69"/>
      <point x="155" y="48"/>
      <point x="155" y="26" type="curve" smooth="yes"/>
      <point x="155" y="-25"/>
      <point x="135" y="-75"/>
      <point x="106" y="-114" type="curve" smooth="yes"/>
      <point x="100" y="-123"/>
      <point x="86" y="-123"/>
      <point x="77" y="-117" type="curve" smooth="yes"/>
      <point x="68" y="-111"/>
      <point x="65" y="-97"/>
      <point x="72" y="-88" type="curve" smooth="yes"/>
      <point x="95" y="-57"/>
      <point x="105" y="-15"/>
      <point x="105" y="26" type="curve" smooth="yes"/>
      <point x="105" y="42"/>
      <point x="105" y="57"/>
      <point x="101" y="67" type="curve" smooth="yes"/>
      <point x="98" y="78"/>
      <point x="107" y="91"/>
      <point x="118" y="94" type="curve" smooth="yes"/>
      <point x="128" y="97"/>
      <point x="143" y="93"/>
    </contour>
  </outline>
</glyph>
<glyph name="quotedblleft" format="1">
  <advance width="406"/>
  <unicode hex="201C"/>
  <outline>
    <contour>
      <point x="140" y="379" type="curve" smooth="yes"/>
      <point x="111" y="417"/>
      <point x="90" y="466"/>
      <point x="90" y="510" type="curve" smooth="yes"/>
      <point x="90" y="537"/>
      <point x="93" y="555"/>
      <point x="97" y="573" type="curve" smooth="yes"/>
      <point x="100" y="583"/>
      <point x="115" y="589"/>
      <point x="126" y="586" type="curve" smooth="yes"/>
      <point x="136" y="584"/>
      <point x="147" y="572"/>
      <point x="145" y="561" type="curve" smooth="yes"/>
      <point x="141" y="547"/>
      <point x="140" y="531"/>
      <point x="140" y="510" type="curve" smooth="yes"/>
      <point x="140" y="476"/>
      <point x="151" y="435"/>
      <point x="174" y="405" type="curve" smooth="yes"/>
      <point x="181" y="397"/>
      <point x="178" y="383"/>
      <point x="169" y="376" type="curve" smooth="yes"/>
      <point x="161" y="370"/>
      <point x="146" y="370"/>
    </contour>
    <contour>
      <point x="300" y="379" type="curve" smooth="yes"/>
      <point x="271" y="417"/>
      <point x="250" y="466"/>
      <point x="250" y="510" type="curve" smooth="yes"/>
      <point x="250" y="537"/>
      <point x="253" y="555"/>
      <point x="257" y="573" type="curve" smooth="yes"/>
      <point x="260" y="583"/>
      <point x="275" y="589"/>
      <point x="286" y="586" type="curve" smooth="yes"/>
      <point x="296" y="584"/>
      <point x="307" y="572"/>
      <point x="305" y="561" type="curve" smooth="yes"/>
      <point x="301" y="547"/>
      <point x="300" y="531"/>
      <point x="300" y="510" type="curve" smooth="yes"/>
      <point x="300" y="476"/>
      <point x="311" y="435"/>
      <point x="334" y="405" type="curve" smooth="yes"/>
      <point x="341" y="397"/>
      <point x="338" y="383"/>
      <point x="329" y="376" type="curve" smooth="yes"/>
      <point x="321" y="370"/>
      <point x="306" y="370"/>
    </contour>
  </outline>
</glyph>
<glyph name="dagger" format="1">
  <advance width="492"/>
  <unicode hex="2020"/>
  <outline>
    <contour>
      <point x="271" y="508" type="curve" smooth="yes"/>
      <point x="271" y="23" type="line" smooth="yes"/>
      <point x="271" y="12"/>
      <point x="257" y="3"/>
      <point x="246" y="3" type="curve" smooth="yes"/>
      <point x="235" y="3"/>
      <point x="221" y="12"/>
      <point x="221" y="23" type="curve" smooth="yes"/>
      <point x="221" y="508" type="line" smooth="yes"/>
      <point x="221" y="519"/>
      <point x="235" y="528"/>
      <point x="246" y="528" type="curve" smooth="yes"/>
      <point x="257" y="528"/>
      <point x="271" y="519"/>
    </contour>
    <contour>
      <point x="95" y="400" type="curve" smooth="yes"/>
      <point x="397" y="400" type="line" smooth="yes"/>
      <point x="408" y="400"/>
      <point x="417" y="391"/>
      <point x="417" y="380" type="curve" smooth="yes"/>
      <point x="417" y="369"/>
      <point x="408" y="360"/>
      <point x="397" y="360" type="curve" smooth="yes"/>
      <point x="95" y="360" type="line" smooth="yes"/>
      <point x="84" y="360"/>
      <point x="75" y="369"/>
      <point x="75" y="380" type="curve" smooth="yes"/>
      <point x="75" y="391"/>
      <point x="84" y="400"/>
    </contour>
  </outline>
</glyph>
<glyph name="perthousand" format="1">
  <advance width="1133"/>
  <unicode hex="2030"/>
  <outline>
    <contour>
      <point x="931" y="305" type="curve" smooth="yes"/>
      <point x="1000" y="305"/>
      <point x="1064" y="246"/>
      <point x="1064" y="149" type="curve" smooth="yes"/>
      <point x="1064" y="58"/>
      <point x="1010" y="-7"/>
      <point x="931" y="-7" type="curve" smooth="yes"/>
      <point x="859" y="-7"/>
      <point x="797" y="58"/>
      <point x="797" y="148" type="curve" smooth="yes"/>
      <point x="797" y="246"/>
      <point x="858" y="305"/>
    </contour>
    <contour>
      <point x="931" y="265" type="curve" smooth="yes"/>
      <point x="876" y="265"/>
      <point x="847" y="210"/>
      <point x="847" y="148" type="curve" smooth="yes"/>
      <point x="847" y="92"/>
      <point x="877" y="33"/>
      <point x="931" y="33" type="curve" smooth="yes"/>
      <point x="990" y="33"/>
      <point x="1014" y="92"/>
      <point x="1014" y="149" type="curve" smooth="yes"/>
      <point x="1014" y="210"/>
      <point x="982" y="265"/>
    </contour>
    <component base="percent"/>
  </outline>
</glyph>
<glyph name="guilsinglleft" format="1">
  <advance width="268"/>
  <unicode hex="2039"/>
  <outline>
    <contour>
      <point x="88" y="202" type="curve" smooth="yes"/>
      <point x="199" y="52" type="line" smooth="yes"/>
      <point x="206" y="43"/>
      <point x="203" y="29"/>
      <point x="194" y="23" type="curve" smooth="yes"/>
      <point x="185" y="16"/>
      <point x="171" y="17"/>
      <point x="165" y="26" type="curve" smooth="yes"/>
      <point x="54" y="176" type="line" smooth="yes"/>
      <point x="47" y="185"/>
      <point x="50" y="199"/>
      <point x="59" y="205" type="curve" smooth="yes"/>
      <point x="68" y="212"/>
      <point x="82" y="211"/>
    </contour>
    <contour>
      <point x="199" y="331" type="curve" smooth="yes"/>
      <point x="88" y="181" type="line" smooth="yes"/>
      <point x="82" y="172"/>
      <point x="68" y="171"/>
      <point x="59" y="178" type="curve" smooth="yes"/>
      <point x="50" y="184"/>
      <point x="47" y="198"/>
      <point x="54" y="207" type="curve" smooth="yes"/>
      <point x="165" y="357" type="line" smooth="yes"/>
      <point x="171" y="366"/>
      <point x="185" y="367"/>
      <point x="194" y="360" type="curve" smooth="yes"/>
      <point x="203" y="354"/>
      <point x="206" y="340"/>
    </contour>
  </outline>
</glyph>
<glyph name="guilsinglright" format="1">
  <advance width="268"/>
  <unicode hex="203A"/>
  <outline>
    <contour>
      <point x="69" y="52" type="curve" smooth="yes"/>
      <point x="180" y="202" type="line" smooth="yes"/>
      <point x="186" y="211"/>
      <point x="200" y="212"/>
      <point x="209" y="205" type="curve" smooth="yes"/>
      <point x="218" y="199"/>
      <point x="221" y="185"/>
      <point x="214" y="176" type="curve" smooth="yes"/>
      <point x="103" y="26" type="line" smooth="yes"/>
      <point x="97" y="17"/>
      <point x="83" y="16"/>
      <point x="74" y="23" type="curve" smooth="yes"/>
      <point x="65" y="29"/>
      <point x="62" y="43"/>
    </contour>
    <contour>
      <point x="180" y="181" type="curve" smooth="yes"/>
      <point x="69" y="331" type="line" smooth="yes"/>
      <point x="62" y="340"/>
      <point x="65" y="354"/>
      <point x="74" y="360" type="curve" smooth="yes"/>
      <point x="83" y="367"/>
      <point x="97" y="366"/>
      <point x="103" y="357" type="curve" smooth="yes"/>
      <point x="214" y="207" type="line" smooth="yes"/>
      <point x="221" y="198"/>
      <point x="218" y="184"/>
      <point x="209" y="178" type="curve" smooth="yes"/>
      <point x="200" y="171"/>
      <point x="186" y="172"/>
    </contour>
  </outline>
</glyph>
<glyph name="fraction" format="1">
  <advance width="454"/>
  <unicode hex="2044"/>
  <outline>
    <contour>
      <point x="390" y="497" type="curve" smooth="yes"/>
      <point x="107" y="12" type="line" smooth="yes"/>
      <point x="102" y="2"/>
      <point x="87" y="0"/>
      <point x="78" y="6" type="curve" smooth="yes"/>
      <point x="69" y="11"/>
      <point x="63" y="25"/>
      <point x="69" y="34" type="curve" smooth="yes"/>
      <point x="352" y="519" type="line" smooth="yes"/>
      <point x="357" y="529"/>
      <point x="372" y="531"/>
      <point x="381" y="525" type="curve" smooth="yes"/>
      <point x="390" y="520"/>
      <point x="396" y="506"/>
    </contour>
  </outline>
</glyph>
<glyph name="indianrupee" format="1">
  <advance width="602"/>
  <unicode hex="20B9"/>
  <outline>
    <contour>
      <point x="152" y="232" type="curve" smooth="yes"/>
      <point x="271" y="232"/>
      <point x="335" y="290"/>
      <point x="335" y="361" type="curve" smooth="yes"/>
      <point x="335" y="438"/>
      <point x="260" y="488"/>
      <point x="152" y="488" type="curve" smooth="yes"/>
      <point x="116" y="488" type="line" smooth="yes"/>
      <point x="105" y="488"/>
      <point x="96" y="497"/>
      <point x="96" y="508" type="curve" smooth="yes"/>
      <point x="96" y="519"/>
      <point x="105" y="528"/>
      <point x="116" y="528" type="curve" smooth="yes"/>
      <point x="152" y="528" type="line" smooth="yes"/>
      <point x="294" y="528"/>
      <point x="385" y="458"/>
      <point x="385" y="361" type="curve" smooth="yes"/>
      <point x="385" y="270"/>
      <point x="309" y="192"/>
      <point x="152" y="192" type="curve" smooth="yes"/>
      <point x="141" y="192"/>
      <point x="132" y="201"/>
      <point x="132" y="212" type="curve" smooth="yes"/>
      <point x="132" y="223"/>
      <point x="141" y="232"/>
    </contour>
    <contour>
      <point x="163" y="223" type="curve" smooth="yes"/>
      <point x="407" y="39" type="line" smooth="yes"/>
      <point x="416" y="33"/>
      <point x="417" y="20"/>
      <point x="411" y="11" type="curve" smooth="yes"/>
      <point x="404" y="2"/>
      <point x="391" y="0"/>
      <point x="383" y="7" type="curve" smooth="yes"/>
      <point x="139" y="191" type="line" smooth="yes"/>
      <point x="130" y="197"/>
      <point x="129" y="210"/>
      <point x="135" y="219" type="curve" smooth="yes"/>
      <point x="142" y="228"/>
      <point x="155" y="230"/>
    </contour>
    <contour>
      <point x="116" y="381" type="curve" smooth="yes"/>
      <point x="477" y="381" type="line" smooth="yes"/>
      <point x="488" y="381"/>
      <point x="497" y="372"/>
      <point x="497" y="361" type="curve" smooth="yes"/>
      <point x="497" y="350"/>
      <point x="488" y="341"/>
      <point x="477" y="341" type="curve" smooth="yes"/>
      <point x="116" y="341" type="line" smooth="yes"/>
      <point x="105" y="341"/>
      <point x="96" y="350"/>
      <point x="96" y="361" type="curve" smooth="yes"/>
      <point x="96" y="372"/>
      <point x="105" y="381"/>
    </contour>
    <contour>
      <point x="163" y="528" type="curve" smooth="yes"/>
      <point x="477" y="528" type="line" smooth="yes"/>
      <point x="488" y="528"/>
      <point x="497" y="519"/>
      <point x="497" y="508" type="curve" smooth="yes"/>
      <point x="497" y="497"/>
      <point x="488" y="488"/>
      <point x="477" y="488" type="curve" smooth="yes"/>
      <point x="163" y="488" type="line" smooth="yes"/>
      <point x="152" y="488"/>
      <point x="143" y="497"/>
      <point x="143" y="508" type="curve" smooth="yes"/>
      <point x="143" y="519"/>
      <point x="152" y="528"/>
    </contour>
  </outline>
</glyph>
<glyph name="uni20BD" format="1">
  <advance width="532"/>
  <unicode hex="20BD"/>
  <outline>
    <contour>
      <point x="65" y="282" type="curve" smooth="yes"/>
      <point x="293" y="282" type="line" smooth="yes"/>
      <point x="386" y="282"/>
      <point x="427" y="329"/>
      <point x="427" y="385" type="curve" smooth="yes"/>
      <point x="427" y="447"/>
      <point x="376" y="488"/>
      <point x="293" y="488" type="curve" smooth="yes"/>
      <point x="158" y="488" type="line"/>
      <point x="183" y="508" type="line"/>
      <point x="183" y="23" type="line" smooth="yes"/>
      <point x="183" y="12"/>
      <point x="169" y="3"/>
      <point x="158" y="3" type="curve" smooth="yes"/>
      <point x="147" y="3"/>
      <point x="133" y="12"/>
      <point x="133" y="23" type="curve" smooth="yes"/>
      <point x="133" y="508" type="line" smooth="yes"/>
      <point x="133" y="519"/>
      <point x="144" y="528"/>
      <point x="158" y="528" type="curve" smooth="yes"/>
      <point x="293" y="528" type="line" smooth="yes"/>
      <point x="408" y="528"/>
      <point x="477" y="469"/>
      <point x="477" y="385" type="curve" smooth="yes"/>
      <point x="477" y="307"/>
      <point x="422" y="242"/>
      <point x="293" y="242" type="curve" smooth="yes"/>
      <point x="65" y="242" type="line" smooth="yes"/>
      <point x="54" y="242"/>
      <point x="45" y="251"/>
      <point x="45" y="262" type="curve" smooth="yes"/>
      <point x="45" y="273"/>
      <point x="54" y="282"/>
    </contour>
    <contour>
      <point x="64" y="133" type="curve" smooth="yes"/>
      <point x="326" y="133" type="line" smooth="yes"/>
      <point x="337" y="133"/>
      <point x="346" y="124"/>
      <point x="346" y="113" type="curve" smooth="yes"/>
      <point x="346" y="102"/>
      <point x="337" y="93"/>
      <point x="326" y="93" type="curve" smooth="yes"/>
      <point x="64" y="93" type="line" smooth="yes"/>
      <point x="53" y="93"/>
      <point x="44" y="102"/>
      <point x="44" y="113" type="curve" smooth="yes"/>
      <point x="44" y="124"/>
      <point x="53" y="133"/>
    </contour>
  </outline>
</glyph>
<glyph name="uni2113" format="1">
  <advance width="362"/>
  <unicode hex="2113"/>
  <outline>
    <contour>
      <point x="46" y="135" type="curve" smooth="yes"/>
      <point x="128" y="164"/>
      <point x="174" y="190"/>
      <point x="206" y="223" type="curve" smooth="yes"/>
      <point x="234" y="250"/>
      <point x="257" y="317"/>
      <point x="257" y="377" type="curve" smooth="yes"/>
      <point x="257" y="432"/>
      <point x="252" y="514"/>
      <point x="195" y="514" type="curve" smooth="yes"/>
      <point x="137" y="514"/>
      <point x="137" y="446"/>
      <point x="137" y="391" type="curve" smooth="yes"/>
      <point x="137" y="94" type="line" smooth="yes"/>
      <point x="137" y="60"/>
      <point x="157" y="33"/>
      <point x="195" y="33" type="curve" smooth="yes"/>
      <point x="222" y="33"/>
      <point x="249" y="41"/>
      <point x="274" y="57" type="curve" smooth="yes"/>
      <point x="284" y="63"/>
      <point x="296" y="60"/>
      <point x="302" y="51" type="curve" smooth="yes"/>
      <point x="308" y="41"/>
      <point x="305" y="29"/>
      <point x="296" y="23" type="curve" smooth="yes"/>
      <point x="263" y="3"/>
      <point x="228" y="-7"/>
      <point x="195" y="-7" type="curve" smooth="yes"/>
      <point x="133" y="-7"/>
      <point x="87" y="32"/>
      <point x="87" y="94" type="curve" smooth="yes"/>
      <point x="87" y="391" type="line" smooth="yes"/>
      <point x="87" y="492"/>
      <point x="117" y="554"/>
      <point x="195" y="554" type="curve" smooth="yes"/>
      <point x="268" y="554"/>
      <point x="307" y="476"/>
      <point x="307" y="377" type="curve" smooth="yes"/>
      <point x="307" y="303"/>
      <point x="268" y="226"/>
      <point x="236" y="193" type="curve" smooth="yes"/>
      <point x="200" y="158"/>
      <point x="150" y="130"/>
      <point x="60" y="97" type="curve" smooth="yes"/>
      <point x="50" y="94"/>
      <point x="38" y="99"/>
      <point x="34" y="109" type="curve" smooth="yes"/>
      <point x="31" y="119"/>
      <point x="36" y="131"/>
    </contour>
  </outline>
</glyph>
<glyph name="trademark" format="1">
  <advance width="758"/>
  <unicode hex="2122"/>
  <outline>
    <contour>
      <point x="190" y="533" type="curve" smooth="yes"/>
      <point x="190" y="292" type="line" smooth="yes"/>
      <point x="190" y="281"/>
      <point x="176" y="272"/>
      <point x="165" y="272" type="curve" smooth="yes"/>
      <point x="154" y="272"/>
      <point x="140" y="281"/>
      <point x="140" y="292" type="curve" smooth="yes"/>
      <point x="140" y="533" type="line" smooth="yes"/>
      <point x="140" y="544"/>
      <point x="154" y="553"/>
      <point x="165" y="553" type="curve" smooth="yes"/>
      <point x="176" y="553"/>
      <point x="190" y="544"/>
    </contour>
    <contour>
      <point x="60" y="553" type="curve" smooth="yes"/>
      <point x="272" y="553" type="line" smooth="yes"/>
      <point x="283" y="553"/>
      <point x="292" y="544"/>
      <point x="292" y="533" type="curve" smooth="yes"/>
      <point x="292" y="522"/>
      <point x="283" y="513"/>
      <point x="272" y="513" type="curve" smooth="yes"/>
      <point x="60" y="513" type="line" smooth="yes"/>
      <point x="49" y="513"/>
      <point x="40" y="522"/>
      <point x="40" y="533" type="curve" smooth="yes"/>
      <point x="40" y="544"/>
      <point x="49" y="553"/>
    </contour>
    <contour>
      <point x="429" y="533" type="curve" smooth="yes"/>
      <point x="417" y="462"/>
      <point x="402" y="346"/>
      <point x="396" y="288" type="curve" smooth="yes"/>
      <point x="395" y="278"/>
      <point x="380" y="270"/>
      <point x="369" y="271" type="curve" smooth="yes"/>
      <point x="358" y="272"/>
      <point x="345" y="283"/>
      <point x="346" y="294" type="curve" smooth="yes"/>
      <point x="352" y="352"/>
      <point x="369" y="470"/>
      <point x="381" y="541" type="curve" smooth="yes"/>
      <point x="382" y="552"/>
      <point x="398" y="559"/>
      <point x="408" y="557" type="curve" smooth="yes"/>
      <point x="419" y="555"/>
      <point x="431" y="544"/>
    </contour>
    <contour>
      <point x="664" y="543" type="curve" smooth="yes"/>
      <point x="680" y="464"/>
      <point x="692" y="362"/>
      <point x="702" y="294" type="curve" smooth="yes"/>
      <point x="703" y="284"/>
      <point x="690" y="273"/>
      <point x="680" y="271" type="curve" smooth="yes"/>
      <point x="669" y="270"/>
      <point x="654" y="277"/>
      <point x="652" y="288" type="curve" smooth="yes"/>
      <point x="644" y="354"/>
      <point x="632" y="456"/>
      <point x="616" y="533" type="curve" smooth="yes"/>
      <point x="614" y="544"/>
      <point x="625" y="555"/>
      <point x="636" y="558" type="curve" smooth="yes"/>
      <point x="647" y="560"/>
      <point x="662" y="554"/>
    </contour>
    <contour>
      <point x="436" y="541" type="curve" smooth="yes"/>
      <point x="466" y="478"/>
      <point x="513" y="380"/>
      <point x="546" y="311" type="curve" smooth="yes"/>
      <point x="550" y="301"/>
      <point x="543" y="288"/>
      <point x="534" y="283" type="curve" smooth="yes"/>
      <point x="524" y="278"/>
      <point x="509" y="281"/>
      <point x="504" y="291" type="curve" smooth="yes"/>
      <point x="471" y="360"/>
      <point x="424" y="458"/>
      <point x="394" y="521" type="curve" smooth="yes"/>
      <point x="390" y="531"/>
      <point x="397" y="544"/>
      <point x="406" y="549" type="curve" smooth="yes"/>
      <point x="416" y="554"/>
      <point x="431" y="551"/>
    </contour>
    <contour>
      <point x="506" y="316" type="curve" smooth="yes"/>
      <point x="535" y="384"/>
      <point x="575" y="471"/>
      <point x="613" y="544" type="curve" smooth="yes"/>
      <point x="618" y="554"/>
      <point x="632" y="557"/>
      <point x="642" y="552" type="curve" smooth="yes"/>
      <point x="652" y="547"/>
      <point x="658" y="533"/>
      <point x="653" y="524" type="curve" smooth="yes"/>
      <point x="617" y="451"/>
      <point x="577" y="364"/>
      <point x="548" y="298" type="curve" smooth="yes"/>
      <point x="544" y="288"/>
      <point x="529" y="284"/>
      <point x="519" y="289" type="curve" smooth="yes"/>
      <point x="509" y="293"/>
      <point x="501" y="306"/>
    </contour>
  </outline>
</glyph>
<glyph name="partialdiff" format="1">
  <advance width="566"/>
  <unicode hex="2202"/>
  <outline>
    <contour>
      <point x="204" y="482" type="curve" smooth="yes"/>
      <point x="235" y="513"/>
      <point x="280" y="532"/>
      <point x="322" y="532" type="curve" smooth="yes"/>
      <point x="359" y="532"/>
      <point x="397" y="518"/>
      <point x="424" y="491" type="curve" smooth="yes"/>
      <point x="458" y="457"/>
      <point x="479" y="385"/>
      <point x="479" y="309" type="curve" smooth="yes"/>
      <point x="479" y="203"/>
      <point x="438" y="100"/>
      <point x="395" y="56" type="curve" smooth="yes"/>
      <point x="358" y="19"/>
      <point x="310" y="0"/>
      <point x="262" y="0" type="curve" smooth="yes"/>
      <point x="168" y="0"/>
      <point x="100" y="65"/>
      <point x="100" y="149" type="curve" smooth="yes"/>
      <point x="100" y="247"/>
      <point x="176" y="327"/>
      <point x="307" y="327" type="curve" smooth="yes"/>
      <point x="346" y="327"/>
      <point x="395" y="320"/>
      <point x="445" y="309" type="curve" smooth="yes"/>
      <point x="456" y="306"/>
      <point x="463" y="295"/>
      <point x="461" y="285" type="curve" smooth="yes"/>
      <point x="458" y="274"/>
      <point x="447" y="267"/>
      <point x="437" y="269" type="curve" smooth="yes"/>
      <point x="389" y="280"/>
      <point x="344" y="287"/>
      <point x="307" y="287" type="curve" smooth="yes"/>
      <point x="206" y="287"/>
      <point x="150" y="223"/>
      <point x="150" y="149" type="curve" smooth="yes"/>
      <point x="150" y="91"/>
      <point x="194" y="40"/>
      <point x="262" y="40" type="curve" smooth="yes"/>
      <point x="300" y="40"/>
      <point x="336" y="57"/>
      <point x="365" y="86" type="curve" smooth="yes"/>
      <point x="404" y="124"/>
      <point x="429" y="219"/>
      <point x="429" y="309" type="curve" smooth="yes"/>
      <point x="429" y="369"/>
      <point x="422" y="433"/>
      <point x="394" y="461" type="curve" smooth="yes"/>
      <point x="375" y="480"/>
      <point x="349" y="492"/>
      <point x="322" y="492" type="curve" smooth="yes"/>
      <point x="290" y="492"/>
      <point x="257" y="475"/>
      <point x="232" y="452" type="curve" smooth="yes"/>
      <point x="225" y="445"/>
      <point x="211" y="445"/>
      <point x="204" y="453" type="curve" smooth="yes"/>
      <point x="196" y="461"/>
      <point x="196" y="474"/>
    </contour>
  </outline>
</glyph>
<glyph name="product" format="1">
  <advance width="580"/>
  <unicode hex="220F"/>
  <outline>
    <contour>
      <point x="428" y="23" type="curve" smooth="yes"/>
      <point x="428" y="508" type="line"/>
      <point x="453" y="488" type="line"/>
      <point x="123" y="488" type="line"/>
      <point x="148" y="508" type="line"/>
      <point x="148" y="23" type="line" smooth="yes"/>
      <point x="148" y="12"/>
      <point x="134" y="3"/>
      <point x="123" y="3" type="curve" smooth="yes"/>
      <point x="112" y="3"/>
      <point x="98" y="12"/>
      <point x="98" y="23" type="curve" smooth="yes"/>
      <point x="98" y="508" type="line" smooth="yes"/>
      <point x="98" y="519"/>
      <point x="109" y="528"/>
      <point x="123" y="528" type="curve" smooth="yes"/>
      <point x="453" y="528" type="line" smooth="yes"/>
      <point x="467" y="528"/>
      <point x="478" y="519"/>
      <point x="478" y="508" type="curve" smooth="yes"/>
      <point x="478" y="23" type="line" smooth="yes"/>
      <point x="478" y="12"/>
      <point x="464" y="3"/>
      <point x="453" y="3" type="curve" smooth="yes"/>
      <point x="442" y="3"/>
      <point x="428" y="12"/>
    </contour>
  </outline>
</glyph>
<glyph name="minus" format="1">
  <advance width="530"/>
  <unicode hex="2212"/>
  <outline>
    <contour>
      <point x="96" y="269" type="curve" smooth="yes"/>
      <point x="433" y="269" type="line" smooth="yes"/>
      <point x="444" y="269"/>
      <point x="453" y="260"/>
      <point x="453" y="249" type="curve" smooth="yes"/>
      <point x="453" y="238"/>
      <point x="444" y="229"/>
      <point x="433" y="229" type="curve" smooth="yes"/>
      <point x="96" y="229" type="line" smooth="yes"/>
      <point x="85" y="229"/>
      <point x="76" y="238"/>
      <point x="76" y="249" type="curve" smooth="yes"/>
      <point x="76" y="260"/>
      <point x="85" y="269"/>
    </contour>
  </outline>
</glyph>
<glyph name="infinity" format="1">
  <advance width="722"/>
  <unicode hex="221E"/>
  <outline>
    <contour>
      <point x="388" y="270" type="curve"/>
      <point x="388" y="270" type="line"/>
      <point x="431" y="208"/>
      <point x="467" y="165"/>
      <point x="518" y="165" type="curve" smooth="yes"/>
      <point x="569" y="165"/>
      <point x="605" y="208"/>
      <point x="605" y="267" type="curve" smooth="yes"/>
      <point x="605" y="331"/>
      <point x="559" y="373"/>
      <point x="513" y="373" type="curve" smooth="yes"/>
      <point x="453" y="373"/>
      <point x="417" y="316"/>
      <point x="379" y="251" type="curve" smooth="yes"/>
      <point x="333" y="171"/>
      <point x="275" y="126"/>
      <point x="207" y="126" type="curve" smooth="yes"/>
      <point x="131" y="126"/>
      <point x="67" y="178"/>
      <point x="67" y="269" type="curve" smooth="yes"/>
      <point x="67" y="366"/>
      <point x="135" y="414"/>
      <point x="202" y="414" type="curve" smooth="yes"/>
      <point x="272" y="414"/>
      <point x="318" y="368"/>
    </contour>
    <contour>
      <point x="352" y="244" type="line"/>
      <point x="296" y="324"/>
      <point x="262" y="374"/>
      <point x="202" y="374" type="curve" smooth="yes"/>
      <point x="153" y="374"/>
      <point x="117" y="330"/>
      <point x="117" y="269" type="curve" smooth="yes"/>
      <point x="117" y="210"/>
      <point x="153" y="166"/>
      <point x="207" y="166" type="curve" smooth="yes"/>
      <point x="263" y="166"/>
      <point x="305" y="211"/>
      <point x="341" y="273" type="curve" smooth="yes"/>
      <point x="389" y="358"/>
      <point x="441" y="413"/>
      <point x="513" y="413" type="curve" smooth="yes"/>
      <point x="577" y="413"/>
      <point x="655" y="365"/>
      <point x="655" y="267" type="curve" smooth="yes"/>
      <point x="655" y="174"/>
      <point x="589" y="125"/>
      <point x="518" y="125" type="curve" smooth="yes"/>
      <point x="457" y="125"/>
      <point x="407" y="166"/>
      <point x="352" y="244" type="curve"/>
    </contour>
  </outline>
</glyph>
<glyph name="integral" format="1">
  <advance width="318"/>
  <unicode hex="222B"/>
  <outline>
    <contour>
      <point x="271" y="540" type="curve" smooth="yes"/>
      <point x="184" y="535"/>
      <point x="159" y="496"/>
      <point x="159" y="438" type="curve" smooth="yes"/>
      <point x="159" y="23" type="line" smooth="yes"/>
      <point x="159" y="12"/>
      <point x="145" y="3"/>
      <point x="134" y="3" type="curve" smooth="yes"/>
      <point x="123" y="3"/>
      <point x="109" y="12"/>
      <point x="109" y="23" type="curve" smooth="yes"/>
      <point x="109" y="438" type="line" smooth="yes"/>
      <point x="109" y="520"/>
      <point x="148" y="573"/>
      <point x="269" y="580" type="curve" smooth="yes"/>
      <point x="280" y="581"/>
      <point x="289" y="572"/>
      <point x="290" y="561" type="curve" smooth="yes"/>
      <point x="291" y="550"/>
      <point x="282" y="541"/>
    </contour>
    <contour>
      <point x="-3" y="-137" type="curve" smooth="yes"/>
      <point x="84" y="-132"/>
      <point x="109" y="-93"/>
      <point x="109" y="-35" type="curve" smooth="yes"/>
      <point x="109" y="380" type="line" smooth="yes"/>
      <point x="109" y="391"/>
      <point x="123" y="400"/>
      <point x="134" y="400" type="curve" smooth="yes"/>
      <point x="145" y="400"/>
      <point x="159" y="391"/>
      <point x="159" y="380" type="curve" smooth="yes"/>
      <point x="159" y="-35" type="line" smooth="yes"/>
      <point x="159" y="-117"/>
      <point x="120" y="-170"/>
      <point x="-1" y="-177" type="curve" smooth="yes"/>
      <point x="-12" y="-178"/>
      <point x="-21" y="-169"/>
      <point x="-22" y="-158" type="curve" smooth="yes"/>
      <point x="-23" y="-147"/>
      <point x="-14" y="-138"/>
    </contour>
  </outline>
</glyph>
<glyph name="approxequal" format="1">
  <advance width="530"/>
  <unicode hex="2248"/>
  <outline>
    <contour>
      <point x="50" y="334" type="curve" smooth="yes"/>
      <point x="91" y="398"/>
      <point x="133" y="424"/>
      <point x="177" y="424" type="curve" smooth="yes"/>
      <point x="218" y="424"/>
      <point x="246" y="406"/>
      <point x="280" y="376" type="curve" smooth="yes"/>
      <point x="307" y="354"/>
      <point x="328" y="335"/>
      <point x="357" y="335" type="curve" smooth="yes"/>
      <point x="396" y="335"/>
      <point x="421" y="364"/>
      <point x="454" y="413" type="curve" smooth="yes"/>
      <point x="460" y="422"/>
      <point x="474" y="424"/>
      <point x="483" y="418" type="curve" smooth="yes"/>
      <point x="492" y="412"/>
      <point x="496" y="398"/>
      <point x="490" y="389" type="curve" smooth="yes"/>
      <point x="445" y="322"/>
      <point x="406" y="295"/>
      <point x="357" y="295" type="curve" smooth="yes"/>
      <point x="320" y="295"/>
      <point x="289" y="314"/>
      <point x="252" y="346" type="curve" smooth="yes"/>
      <point x="228" y="368"/>
      <point x="208" y="384"/>
      <point x="177" y="384" type="curve" smooth="yes"/>
      <point x="143" y="384"/>
      <point x="117" y="356"/>
      <point x="88" y="310" type="curve" smooth="yes"/>
      <point x="82" y="301"/>
      <point x="67" y="299"/>
      <point x="58" y="305" type="curve" smooth="yes"/>
      <point x="49" y="311"/>
      <point x="45" y="325"/>
    </contour>
    <contour>
      <point x="50" y="133" type="curve" smooth="yes"/>
      <point x="91" y="197"/>
      <point x="128" y="227"/>
      <point x="177" y="227" type="curve" smooth="yes"/>
      <point x="212" y="227"/>
      <point x="244" y="204"/>
      <point x="278" y="178" type="curve" smooth="yes"/>
      <point x="307" y="156"/>
      <point x="328" y="137"/>
      <point x="358" y="137" type="curve" smooth="yes"/>
      <point x="396" y="137"/>
      <point x="421" y="164"/>
      <point x="454" y="213" type="curve" smooth="yes"/>
      <point x="460" y="222"/>
      <point x="474" y="224"/>
      <point x="483" y="218" type="curve" smooth="yes"/>
      <point x="492" y="212"/>
      <point x="496" y="198"/>
      <point x="490" y="189" type="curve" smooth="yes"/>
      <point x="445" y="120"/>
      <point x="406" y="97"/>
      <point x="358" y="97" type="curve" smooth="yes"/>
      <point x="320" y="97"/>
      <point x="291" y="116"/>
      <point x="254" y="146" type="curve" smooth="yes"/>
      <point x="228" y="166"/>
      <point x="204" y="187"/>
      <point x="177" y="187" type="curve" smooth="yes"/>
      <point x="140" y="187"/>
      <point x="117" y="155"/>
      <point x="88" y="109" type="curve" smooth="yes"/>
      <point x="82" y="100"/>
      <point x="67" y="98"/>
      <point x="58" y="104" type="curve" smooth="yes"/>
      <point x="49" y="110"/>
      <point x="45" y="124"/>
    </contour>
  </outline>
</glyph>
<glyph name="greaterequal" format="1">
  <advance width="530"/>
  <unicode hex="2265"/>
  <outline>
    <contour>
      <point x="96" y="99" type="curve" smooth="yes"/>
      <point x="433" y="99" type="line" smooth="yes"/>
      <point x="444" y="99"/>
      <point x="453" y="90"/>
      <point x="453" y="79" type="curve" smooth="yes"/>
      <point x="453" y="68"/>
      <point x="444" y="59"/>
      <point x="433" y="59" type="curve" smooth="yes"/>
      <point x="96" y="59" type="line" smooth="yes"/>
      <point x="85" y="59"/>
      <point x="76" y="68"/>
      <point x="76" y="79" type="curve" smooth="yes"/>
      <point x="76" y="90"/>
      <point x="85" y="99"/>
    </contour>
    <contour>
      <point x="433" y="292" type="curve" smooth="yes"/>
      <point x="123" y="182" type="line" smooth="yes"/>
      <point x="113" y="179"/>
      <point x="101" y="184"/>
      <point x="97" y="194" type="curve" smooth="yes"/>
      <point x="94" y="204"/>
      <point x="99" y="216"/>
      <point x="109" y="220" type="curve" smooth="yes"/>
      <point x="419" y="330" type="line" smooth="yes"/>
      <point x="429" y="333"/>
      <point x="441" y="328"/>
      <point x="445" y="318" type="curve" smooth="yes"/>
      <point x="448" y="308"/>
      <point x="443" y="296"/>
    </contour>
    <contour>
      <point x="118" y="448" type="curve" smooth="yes"/>
      <point x="439" y="333" type="line" smooth="yes"/>
      <point x="449" y="329"/>
      <point x="454" y="317"/>
      <point x="451" y="307" type="curve" smooth="yes"/>
      <point x="447" y="297"/>
      <point x="435" y="292"/>
      <point x="425" y="295" type="curve" smooth="yes"/>
      <point x="104" y="410" type="line" smooth="yes"/>
      <point x="94" y="414"/>
      <point x="89" y="426"/>
      <point x="92" y="436" type="curve" smooth="yes"/>
      <point x="96" y="446"/>
      <point x="108" y="451"/>
    </contour>
  </outline>
</glyph>
<glyph name="brevecmb.case" format="1">
  <advance width="0"/>
  <outline>
    <contour>
      <point x="-104" y="742" type="curve" smooth="yes"/>
      <point x="-80" y="711"/>
      <point x="-43" y="686"/>
      <point x="-2" y="686" type="curve" smooth="yes"/>
      <point x="44" y="686"/>
      <point x="74" y="709"/>
      <point x="96" y="741" type="curve" smooth="yes"/>
      <point x="102" y="750"/>
      <point x="116" y="752"/>
      <point x="125" y="746" type="curve" smooth="yes"/>
      <point x="134" y="740"/>
      <point x="138" y="726"/>
      <point x="132" y="717" type="curve" smooth="yes"/>
      <point x="102" y="673"/>
      <point x="58" y="646"/>
      <point x="-2" y="646" type="curve" smooth="yes"/>
      <point x="-55" y="646"/>
      <point x="-105" y="673"/>
      <point x="-138" y="716" type="curve" smooth="yes"/>
      <point x="-144" y="724"/>
      <point x="-142" y="738"/>
      <point x="-133" y="745" type="curve" smooth="yes"/>
      <point x="-125" y="751"/>
      <point x="-111" y="751"/>
    </contour>
    <contour>
      <point x="0" y="528" type="move" name="_top"/>
    </contour>
  </outline>
</glyph>
<glyph name="caroncmb.case" format="1">
  <advance width="0"/>
  <outline>
    <contour>
      <point x="-10" y="670" type="curve" smooth="yes"/>
      <point x="24" y="693"/>
      <point x="57" y="720"/>
      <point x="86" y="739" type="curve" smooth="yes"/>
      <point x="95" y="745"/>
      <point x="108" y="744"/>
      <point x="114" y="735" type="curve" smooth="yes"/>
      <point x="120" y="726"/>
      <point x="119" y="713"/>
      <point x="110" y="707" type="curve" smooth="yes"/>
      <point x="81" y="688"/>
      <point x="46" y="663"/>
      <point x="14" y="638" type="curve" smooth="yes"/>
      <point x="5" y="631"/>
      <point x="-8" y="634"/>
      <point x="-14" y="642" type="curve" smooth="yes"/>
      <point x="-21" y="651"/>
      <point x="-19" y="664"/>
    </contour>
    <contour>
      <point x="-89" y="739" type="curve" smooth="yes"/>
      <point x="-63" y="716"/>
      <point x="-27" y="694"/>
      <point x="7" y="671" type="curve" smooth="yes"/>
      <point x="16" y="665"/>
      <point x="18" y="651"/>
      <point x="11" y="642" type="curve" smooth="yes"/>
      <point x="5" y="634"/>
      <point x="-8" y="631"/>
      <point x="-17" y="637" type="curve" smooth="yes"/>
      <point x="-52" y="660"/>
      <point x="-84" y="688"/>
      <point x="-113" y="707" type="curve" smooth="yes"/>
      <point x="-122" y="713"/>
      <point x="-123" y="726"/>
      <point x="-117" y="735" type="curve" smooth="yes"/>
      <point x="-111" y="744"/>
      <point x="-97" y="746"/>
    </contour>
    <contour>
      <point x="0" y="528" type="move" name="_top"/>
    </contour>
  </outline>
</glyph>
<glyph name="dieresiscmb.case" format="1">
  <advance width="0"/>
  <outline>
    <contour>
      <point x="-95" y="726" type="curve" smooth="yes"/>
      <point x="-77" y="726"/>
      <point x="-54" y="713"/>
      <point x="-54" y="680" type="curve" smooth="yes"/>
      <point x="-54" y="644"/>
      <point x="-77" y="634"/>
      <point x="-95" y="634" type="curve" smooth="yes"/>
      <point x="-114" y="634"/>
      <point x="-138" y="647"/>
      <point x="-138" y="680" type="curve" smooth="yes"/>
      <point x="-138" y="711"/>
      <point x="-114" y="726"/>
    </contour>
    <contour>
      <point x="98" y="726" type="curve" smooth="yes"/>
      <point x="116" y="726"/>
      <point x="139" y="713"/>
      <point x="139" y="680" type="curve" smooth="yes"/>
      <point x="139" y="644"/>
      <point x="116" y="634"/>
      <point x="98" y="634" type="curve" smooth="yes"/>
      <point x="79" y="634"/>
      <point x="56" y="645"/>
      <point x="56" y="680" type="curve"/>
      <point x="56" y="712"/>
      <point x="79" y="726"/>
    </contour>
    <contour>
      <point x="0" y="528" type="move" name="_top"/>
    </contour>
  </outline>
</glyph>
<glyph name="dotaccentcmb.case" format="1">
  <advance width="0"/>
  <outline>
    <contour>
      <point x="1" y="735" type="curve" smooth="yes"/>
      <point x="20" y="735"/>
      <point x="44" y="720"/>
      <point x="44" y="687" type="curve" smooth="yes"/>
      <point x="44" y="656"/>
      <point x="21" y="642"/>
      <point x="1" y="642" type="curve" smooth="yes"/>
      <point x="-22" y="642"/>
      <point x="-45" y="659"/>
      <point x="-45" y="687" type="curve" smooth="yes"/>
      <point x="-45" y="718"/>
      <point x="-21" y="735"/>
    </contour>
    <contour>
      <point x="0" y="528" type="move" name="_top"/>
    </contour>
  </outline>
</glyph>
<glyph name="hungarianumlautcmb.case" format="1">
  <advance width="0"/>
  <outline>
    <contour>
      <point x="-12" y="705" type="curve" smooth="yes"/>
      <point x="-44" y="680"/>
      <point x="-73" y="657"/>
      <point x="-98" y="630" type="curve" smooth="yes"/>
      <point x="-105" y="623"/>
      <point x="-119" y="623"/>
      <point x="-127" y="631" type="curve" smooth="yes"/>
      <point x="-135" y="638"/>
      <point x="-136" y="652"/>
      <point x="-128" y="660" type="curve" smooth="yes"/>
      <point x="-101" y="687"/>
      <point x="-70" y="712"/>
      <point x="-36" y="737" type="curve" smooth="yes"/>
      <point x="-28" y="744"/>
      <point x="-15" y="742"/>
      <point x="-8" y="733" type="curve" smooth="yes"/>
      <point x="-2" y="724"/>
      <point x="-3" y="711"/>
    </contour>
    <contour>
      <point x="194" y="705" type="curve" smooth="yes"/>
      <point x="158" y="676"/>
      <point x="129" y="650"/>
      <point x="106" y="629" type="curve" smooth="yes"/>
      <point x="97" y="622"/>
      <point x="84" y="624"/>
      <point x="77" y="632" type="curve" smooth="yes"/>
      <point x="70" y="640"/>
      <point x="70" y="653"/>
      <point x="78" y="661" type="curve" smooth="yes"/>
      <point x="103" y="682"/>
      <point x="132" y="708"/>
      <point x="168" y="737" type="curve" smooth="yes"/>
      <point x="177" y="744"/>
      <point x="190" y="742"/>
      <point x="197" y="734" type="curve" smooth="yes"/>
      <point x="203" y="725"/>
      <point x="202" y="712"/>
    </contour>
    <contour>
      <point x="0" y="528" type="move" name="_top"/>
    </contour>
  </outline>
</glyph>
<glyph name="hungarumlautcmb.case" format="1">
  <advance width="0"/>
  <outline>
    <contour>
      <point x="-38" y="727" type="curve" smooth="yes"/>
      <point x="-60" y="694"/>
      <point x="-72" y="664"/>
      <point x="-84" y="635" type="curve" smooth="yes"/>
      <point x="-88" y="625"/>
      <point x="-103" y="621"/>
      <point x="-113" y="625" type="curve" smooth="yes"/>
      <point x="-123" y="629"/>
      <point x="-132" y="643"/>
      <point x="-128" y="653" type="curve" smooth="yes"/>
      <point x="-116" y="684"/>
      <point x="-100" y="715"/>
      <point x="-76" y="751" type="curve" smooth="yes"/>
      <point x="-70" y="760"/>
      <point x="-56" y="762"/>
      <point x="-46" y="756" type="curve" smooth="yes"/>
      <point x="-37" y="750"/>
      <point x="-32" y="736"/>
    </contour>
    <contour>
      <point x="167" y="727" type="curve" smooth="yes"/>
      <point x="145" y="694"/>
      <point x="133" y="664"/>
      <point x="121" y="635" type="curve" smooth="yes"/>
      <point x="117" y="625"/>
      <point x="102" y="621"/>
      <point x="92" y="625" type="curve" smooth="yes"/>
      <point x="82" y="629"/>
      <point x="73" y="643"/>
      <point x="77" y="653" type="curve" smooth="yes"/>
      <point x="89" y="684"/>
      <point x="105" y="715"/>
      <point x="129" y="751" type="curve" smooth="yes"/>
      <point x="135" y="760"/>
      <point x="149" y="762"/>
      <point x="159" y="756" type="curve" smooth="yes"/>
      <point x="168" y="750"/>
      <point x="173" y="736"/>
    </contour>
    <contour>
      <point x="0" y="528" type="move" name="_top"/>
    </contour>
  </outline>
</glyph>
<glyph name="ringcmb.case" format="1">
  <advance width="0"/>
  <outline>
    <contour>
      <point x="109" y="642" type="curve" smooth="yes"/>
      <point x="109" y="587"/>
      <point x="69" y="544"/>
      <point x="1" y="544" type="curve" smooth="yes"/>
      <point x="-64" y="544"/>
      <point x="-104" y="591"/>
      <point x="-104" y="642" type="curve" smooth="yes"/>
      <point x="-104" y="691"/>
      <point x="-64" y="740"/>
      <point x="1" y="740" type="curve" smooth="yes"/>
      <point x="69" y="740"/>
      <point x="109" y="695"/>
    </contour>
    <contour>
      <point x="63" y="642" type="curve" smooth="yes"/>
      <point x="63" y="671"/>
      <point x="41" y="699"/>
      <point x="1" y="699" type="curve" smooth="yes"/>
      <point x="-38" y="699"/>
      <point x="-58" y="669"/>
      <point x="-58" y="642" type="curve" smooth="yes"/>
      <point x="-58" y="612"/>
      <point x="-37" y="585"/>
      <point x="1" y="585" type="curve" smooth="yes"/>
      <point x="41" y="585"/>
      <point x="63" y="613"/>
    </contour>
    <contour>
      <point x="0" y="528" type="move" name="_top"/>
    </contour>
  </outline>
</glyph>
<glyph name="tildecmb.case" format="1">
  <advance width="0"/>
  <outline>
    <contour>
      <point x="-143" y="681" type="curve" smooth="yes"/>
      <point x="-112" y="716"/>
      <point x="-86" y="735"/>
      <point x="-58" y="735" type="curve" smooth="yes"/>
      <point x="-33" y="735"/>
      <point x="-11" y="722"/>
      <point x="13" y="704" type="curve" smooth="yes"/>
      <point x="29" y="692"/>
      <point x="43" y="682"/>
      <point x="59" y="682" type="curve" smooth="yes"/>
      <point x="82" y="682"/>
      <point x="97" y="701"/>
      <point x="117" y="727" type="curve" smooth="yes"/>
      <point x="124" y="736"/>
      <point x="138" y="736"/>
      <point x="146" y="730" type="curve" smooth="yes"/>
      <point x="155" y="723"/>
      <point x="158" y="709"/>
      <point x="151" y="701" type="curve" smooth="yes"/>
      <point x="116" y="661"/>
      <point x="92" y="642"/>
      <point x="59" y="642" type="curve" smooth="yes"/>
      <point x="35" y="642"/>
      <point x="13" y="654"/>
      <point x="-11" y="672" type="curve" smooth="yes"/>
      <point x="-27" y="684"/>
      <point x="-41" y="695"/>
      <point x="-58" y="695" type="curve" smooth="yes"/>
      <point x="-76" y="695"/>
      <point x="-92" y="676"/>
      <point x="-109" y="655" type="curve" smooth="yes"/>
      <point x="-116" y="646"/>
      <point x="-130" y="646"/>
      <point x="-138" y="652" type="curve" smooth="yes"/>
      <point x="-147" y="659"/>
      <point x="-150" y="673"/>
    </contour>
    <contour>
      <point x="0" y="528" type="move" name="_top"/>
    </contour>
  </outline>
</glyph>
